<svg width="252" height="320" viewBox="0 0 252 320" fill="none" xmlns="http://www.w3.org/2000/svg">
<mask id="mask0_1_1309" style="mask-type:luminance" maskUnits="userSpaceOnUse" x="100" y="73" width="106" height="135">
<path d="M170.94 77.5344C185.711 66.8088 202.754 78.3598 205.034 94.0492C207.316 109.739 183.893 157.246 176.087 163.784C168.28 170.321 172.412 153.76 172.412 153.76C172.412 153.76 146.355 189.934 131.37 196.035C116.386 202.137 124.653 188.063 124.653 188.063C124.653 188.063 104.446 209.464 100.313 207.109C96.1797 204.753 141.21 164.361 170.94 77.5344Z" fill="white"/>
</mask>
<g mask="url(#mask0_1_1309)">
<mask id="mask1_1_1309" style="mask-type:luminance" maskUnits="userSpaceOnUse" x="191" y="75" width="3" height="2">
<path d="M193.885 76.6023C193.025 76.1032 192.155 75.6332 191.29 75.1905C192.184 75.6002 193.05 76.0721 193.885 76.6023Z" fill="white"/>
</mask>
<g mask="url(#mask1_1_1309)">
<path d="M193.615 76.6955V76.5013H193.227V76.3071H192.838V76.1129H192.45V75.9187H192.256V75.7245H191.867V75.5303H191.479V75.3361H191.285V75.1419H191.673V75.3361H192.061V75.5303H192.45V75.7245H192.838V75.9187H193.032V76.1129H193.421V76.3071H193.809V76.5013H194.003V76.6955" fill="url(#paint0_linear_1_1309)"/>
</g>
</g>
<mask id="mask2_1_1309" style="mask-type:luminance" maskUnits="userSpaceOnUse" x="100" y="73" width="106" height="135">
<path d="M170.94 77.5344C185.711 66.8088 202.754 78.3598 205.034 94.0492C207.316 109.739 183.893 157.246 176.087 163.784C168.28 170.321 172.412 153.76 172.412 153.76C172.412 153.76 146.355 189.934 131.37 196.035C116.386 202.137 124.653 188.063 124.653 188.063C124.653 188.063 104.446 209.464 100.313 207.109C96.1797 204.753 141.21 164.361 170.94 77.5344Z" fill="white"/>
</mask>
<g mask="url(#mask2_1_1309)">
<mask id="mask3_1_1309" style="mask-type:luminance" maskUnits="userSpaceOnUse" x="113" y="144" width="76" height="55">
<path d="M114.44 198.098C114.158 197.69 113.881 197.28 113.607 196.866L117.913 194.833C116.815 195.892 115.643 196.997 114.44 198.098ZM125.398 197.569C124.23 197.569 123.469 197.247 123.002 196.719C123.63 195.097 124.14 193.379 124.424 191.759L125.211 191.388C127.033 193.95 128.943 196.367 129.83 196.622C127.938 197.286 126.49 197.569 125.398 197.569ZM130.247 196.472L130.248 196.47C131.618 193.858 131.718 191.017 130.785 188.755L136.268 186.166L143.081 185.028C143.344 185.721 143.615 186.407 143.892 187.053C139.417 191.211 135.058 194.534 131.37 196.035C130.981 196.194 130.606 196.34 130.247 196.472ZM139.682 180.468C140.206 180.177 140.722 179.882 141.23 179.585C141.29 179.779 141.353 179.981 141.419 180.19L139.682 180.468ZM152.917 177.831C151.596 176.526 149.894 175.708 147.938 175.708C147.666 175.708 147.388 175.724 147.106 175.757C147.53 175.446 147.944 175.135 148.342 174.825C149.967 173.56 151.545 172.298 153.081 171.036C163.122 162.788 171.28 154.626 177.897 146.792C178.386 147.753 179.134 148.443 180.227 148.695C180.627 148.786 181.025 148.831 181.423 148.831C183.93 148.831 186.371 147.044 188.68 144.155C183.744 153.748 178.901 161.427 176.087 163.784C174.801 164.86 173.838 165.311 173.127 165.311C171.746 165.311 171.321 163.61 171.319 161.512C171.319 158.145 172.412 153.76 172.412 153.76C172.412 153.76 163.394 166.28 152.917 177.831Z" fill="white"/>
</mask>
<g mask="url(#mask3_1_1309)">
<path d="M114.381 198.265V198.07H114.187V197.876H113.993V197.488H113.799V197.294H113.605V196.711H113.799V196.517H114.187V196.323H114.576V196.128H115.158V195.934H115.547V195.74H115.935V195.546H116.323V195.352H116.712V195.157H117.1V194.963H117.489V194.769H118.071V194.963H117.877V195.157H117.683V195.352H117.489V195.546H117.294V195.74H117.1V195.934H116.906V196.128H116.712V196.323H116.518V196.517H116.129V196.711H115.935V196.905H115.741V197.099H115.547V197.294H115.352V197.488H115.158V197.682H114.964V197.876H114.77V198.07H114.576V198.265H114.381ZM124.674 197.682V197.488H123.703V197.294H123.509V197.099H123.12V196.905H122.926V196.323H123.12V195.74H123.315V195.157H123.509V194.575H123.703V193.992H123.897V193.215H124.091V192.244H124.286V191.662H124.48V191.468H124.868V191.273H125.451V191.662H125.645V191.856H125.839V192.244H126.033V192.439H126.228V192.633H126.422V193.021H126.616V193.215H126.81V193.41H127.004V193.604H127.199V193.992H127.393V194.186H127.587V194.381H127.781V194.575H127.975V194.963H128.17V195.157H128.364V195.352H128.558V195.546H128.752V195.74H128.946V195.934H129.141V196.128H129.335V196.323H129.723V196.517H129.917V196.711H129.529V196.905H128.946V197.099H128.364V197.294H127.587V197.488H126.228V197.682H124.674ZM130.112 196.517V196.323H130.306V195.934H130.5V195.352H130.694V194.769H130.888V194.186H131.083V193.021H131.277V190.691H131.083V189.72H130.888V189.137H130.694V188.555H131.083V188.36H131.471V188.166H131.859V187.972H132.442V187.778H132.83V187.584H133.219V187.389H133.607V187.195H133.996V187.001H134.384V186.807H134.772V186.613H135.161V186.418H135.549V186.224H136.132V186.03H136.909V185.836H138.074V185.642H139.239V185.447H140.404V185.253H141.569V185.059H142.735V184.865H143.123V185.059H143.317V185.447H143.511V186.03H143.706V186.418H143.9V187.389H143.511V187.584H143.317V187.778H143.123V187.972H142.929V188.166H142.735V188.36H142.54V188.555H142.346V188.749H142.152V188.943H141.764V189.137H141.569V189.331H141.375V189.526H141.181V189.72H140.987V189.914H140.793V190.108H140.598V190.302H140.21V190.497H140.016V190.691H139.822V190.885H139.627V191.079H139.239V191.273H139.045V191.468H138.851V191.662H138.462V191.856H138.268V192.05H138.074V192.244H137.88V192.439H137.491V192.633H137.297V192.827H136.909V193.021H136.714V193.215H136.326V193.41H136.132V193.604H135.743V193.798H135.549V193.992H135.161V194.186H134.967V194.381H134.578V194.575H134.384V194.769H133.996V194.963H133.607V195.157H133.219V195.352H132.83V195.546H132.636V195.74H132.248V195.934H131.665V196.128H131.277V196.323H130.694V196.517H130.112ZM139.627 180.592V180.204H140.016V180.01H140.404V179.816H140.793V179.621H140.987V179.427H141.375V180.01H141.569V180.204H141.375V180.398H140.21V180.592H139.627ZM152.639 177.874V177.679H152.445V177.485H152.25V177.291H151.862V177.097H151.668V176.903H151.279V176.708H150.891V176.514H150.697V176.32H150.114V176.126H149.532V175.932H148.366V175.737H147.395V175.932H147.007V175.543H147.201V175.349H147.59V175.155H147.784V174.961H147.978V174.766H148.366V174.572H148.561V174.378H148.755V174.184H149.143V173.99H149.337V173.795H149.532V173.601H149.726V173.407H150.114V173.213H150.308V173.019H150.503V172.824H150.697V172.63H151.085V172.436H151.279V172.242H151.474V172.048H151.668V171.853H152.056V171.659H152.25V171.465H152.445V171.271H152.639V171.077H153.027V170.882H153.221V170.688H153.416V170.494H153.61V170.3H153.804V170.106H154.192V169.911H154.387V169.717H154.581V169.523H154.775V169.329H154.969V169.135H155.358V168.94H155.552V168.746H155.746V168.552H155.94V168.358H156.134V168.164H156.329V167.969H156.523V167.775H156.911V167.581H157.105V167.387H157.3V167.193H157.494V166.998H157.688V166.804H157.882V166.61H158.076V166.416H158.465V166.222H158.659V166.027H158.853V165.833H159.047V165.639H159.242V165.445H159.436V165.251H159.824V165.056H160.018V164.862H160.213V164.668H160.407V164.474H160.601V164.28H160.795V164.085H160.989V163.891H161.184V163.697H161.378V163.503H161.572V163.309H161.766V163.114H161.96V162.92H162.155V162.726H162.543V162.532H162.737V162.338H162.931V162.143H163.126V161.949H163.32V161.755H163.514V161.561H163.708V161.367H163.902V161.172H164.097V160.978H164.291V160.784H164.485V160.59H164.679V160.396H164.873V160.201H165.068V160.007H165.262V159.813H165.65V159.619H165.844V159.425H166.039V159.23H166.233V159.036H166.427V158.842H166.621V158.648H166.815V158.454H167.01V158.259H167.204V158.065H167.398V157.871H167.592V157.677H167.786V157.483H167.981V157.288H168.175V157.094H168.369V156.9H168.563V156.706H168.757V156.512H168.952V156.317H169.146V155.929H169.34V155.735H169.534V155.541H169.728V155.346H169.923V155.152H170.117V154.958H170.311V154.764H170.505V154.57H170.699V154.375H170.894V154.181H171.088V153.987H171.282V153.793H171.476V153.599H171.67V153.404H171.865V153.21H172.059V153.016H172.253V152.822H172.447V152.628H172.641V152.433H172.836V152.239H173.03V152.045H173.224V151.851H173.418V151.462H173.612V151.268H173.807V151.074H174.001V150.88H174.195V150.686H174.389V150.491H174.583V150.297H174.778V150.103H174.972V149.909H175.166V149.52H175.36V149.326H175.554V149.132H175.749V148.938H175.943V148.744H176.137V148.549H176.331V148.355H176.525V148.161H176.72V147.773H176.914V147.578H177.108V147.384H177.302V147.19H177.496V146.996H177.691V146.802H177.885V146.607H178.079V146.996H178.273V147.384H178.467V147.578H178.662V147.773H178.856V147.967H179.244V148.161H179.438V148.355H179.827V148.549H180.604V148.744H182.157V148.549H182.934V148.355H183.517V148.161H183.905V147.967H184.293V147.773H184.682V147.578H185.07V147.384H185.264V147.19H185.459V146.996H185.653V146.802H186.041V146.607H186.235V146.413H186.43V146.219H186.624V146.025H186.818V145.831H187.012V145.636H187.206V145.442H187.401V145.248H187.595V145.054H187.789V144.86H187.983V144.665H188.177V144.471H188.372V144.277H188.566V144.083H188.76V144.471H188.566V144.86H188.372V145.248H188.177V145.636H187.983V146.025H187.789V146.413H187.595V146.607H187.401V146.996H187.206V147.384H187.012V147.773H186.818V148.161H186.624V148.549H186.43V148.938H186.235V149.132H186.041V149.52H185.847V149.909H185.653V150.297H185.459V150.686H185.264V150.88H185.07V151.268H184.876V151.657H184.682V152.045H184.488V152.239H184.293V152.628H184.099V153.016H183.905V153.21H183.711V153.599H183.517V153.987H183.322V154.375H183.128V154.57H182.934V154.958H182.74V155.152H182.546V155.541H182.351V155.929H182.157V156.123H181.963V156.512H181.769V156.706H181.575V157.094H181.38V157.288H181.186V157.677H180.992V158.065H180.798V158.259H180.604V158.648H180.409V158.842H180.215V159.036H180.021V159.425H179.827V159.619H179.633V160.007H179.438V160.201H179.244V160.396H179.05V160.784H178.856V160.978H178.662V161.172H178.467V161.561H178.273V161.755H178.079V161.949H177.885V162.143H177.691V162.532H177.496V162.726H177.302V162.92H177.108V163.114H176.914V163.309H176.72V163.503H176.525V163.697H176.331V163.891H176.137V164.085H175.749V164.28H175.554V164.474H175.166V164.668H174.972V164.862H174.583V165.056H174.195V165.251H173.418V165.445H172.641V165.251H172.253V165.056H172.059V164.862H171.865V164.474H171.67V164.085H171.476V163.309H171.282V159.036H171.476V157.483H171.67V156.317H171.865V155.346H172.059V154.57H171.865V154.958H171.67V155.152H171.476V155.346H171.282V155.735H171.088V155.929H170.894V156.123H170.699V156.512H170.505V156.706H170.311V156.9H170.117V157.288H169.923V157.483H169.728V157.677H169.534V158.065H169.34V158.259H169.146V158.454H168.952V158.842H168.757V159.036H168.563V159.23H168.369V159.425H168.175V159.813H167.981V160.007H167.786V160.201H167.592V160.59H167.398V160.784H167.204V160.978H167.01V161.172H166.815V161.561H166.621V161.755H166.427V161.949H166.233V162.338H166.039V162.532H165.844V162.726H165.65V162.92H165.456V163.309H165.262V163.503H165.068V163.697H164.873V163.891H164.679V164.28H164.485V164.474H164.291V164.668H164.097V165.056H163.902V165.251H163.708V165.445H163.514V165.639H163.32V166.027H163.126V166.222H162.931V166.416H162.737V166.61H162.543V166.804H162.349V167.193H162.155V167.387H161.96V167.581H161.766V167.775H161.572V168.164H161.378V168.358H161.184V168.552H160.989V168.746H160.795V168.94H160.601V169.329H160.407V169.523H160.213V169.717H160.018V169.911H159.824V170.106H159.63V170.494H159.436V170.688H159.242V170.882H159.047V171.077H158.853V171.271H158.659V171.659H158.465V171.853H158.271V172.048H158.076V172.242H157.882V172.436H157.688V172.63H157.494V173.019H157.3V173.213H157.105V173.407H156.911V173.601H156.717V173.795H156.523V173.99H156.329V174.378H156.134V174.572H155.94V174.766H155.746V174.961H155.552V175.155H155.358V175.349H155.163V175.543H154.969V175.932H154.775V176.126H154.581V176.32H154.387V176.514H154.192V176.708H153.998V176.903H153.804V177.097H153.61V177.291H153.416V177.485H153.221V177.874" fill="url(#paint1_linear_1_1309)"/>
</g>
</g>
<mask id="mask4_1_1309" style="mask-type:luminance" maskUnits="userSpaceOnUse" x="100" y="73" width="106" height="135">
<path d="M170.94 77.5344C185.711 66.8088 202.754 78.3598 205.034 94.0492C207.316 109.739 183.893 157.246 176.087 163.784C168.28 170.321 172.412 153.76 172.412 153.76C172.412 153.76 146.355 189.934 131.37 196.035C116.386 202.137 124.653 188.063 124.653 188.063C124.653 188.063 104.446 209.464 100.313 207.109C96.1797 204.753 141.21 164.361 170.94 77.5344Z" fill="white"/>
</mask>
<g mask="url(#mask4_1_1309)">
<mask id="mask5_1_1309" style="mask-type:luminance" maskUnits="userSpaceOnUse" x="177" y="109" width="27" height="40">
<path d="M181.423 148.831C181.025 148.831 180.627 148.786 180.227 148.695C179.134 148.443 178.386 147.753 177.897 146.792C185.548 137.731 191.143 129.104 195.215 121.278C198.004 118.643 200.639 114.184 203.014 109.104C199.996 119.934 194.277 133.278 188.68 144.155C186.371 147.044 183.93 148.831 181.423 148.831Z" fill="white"/>
</mask>
<g mask="url(#mask5_1_1309)">
<path d="M180.409 148.938V148.744H179.633V148.549H179.244V148.355H179.05V148.161H178.662V147.967H178.467V147.773H178.273V147.578H178.079V147.19H177.885V146.413H178.079V146.219H178.273V146.025H178.467V145.831H178.662V145.636H178.856V145.248H179.05V145.054H179.244V144.86H179.438V144.665H179.633V144.277H179.827V144.083H180.021V143.889H180.215V143.694H180.409V143.306H180.604V143.112H180.798V142.918H180.992V142.723H181.186V142.335H181.38V142.141H181.575V141.947H181.769V141.558H181.963V141.364H182.157V141.17H182.351V140.976H182.546V140.587H182.74V140.393H182.934V140.199H183.128V139.81H183.322V139.616H183.517V139.422H183.711V139.034H183.905V138.839H184.099V138.451H184.293V138.257H184.488V138.063H184.682V137.674H184.876V137.48H185.07V137.092H185.264V136.897H185.459V136.703H185.653V136.315H185.847V136.121H186.041V135.732H186.235V135.538H186.43V135.344H186.624V134.955H186.818V134.761H187.012V134.373H187.206V134.179H187.401V133.984H187.595V133.596H187.789V133.402H187.983V133.013H188.177V132.819H188.372V132.431H188.566V132.042H188.76V131.848H188.954V131.46H189.148V131.266H189.343V130.877H189.537V130.489H189.731V130.295H189.925V129.906H190.119V129.712H190.314V129.324H190.508V129.129H190.702V128.741H190.896V128.353H191.09V128.158H191.285V127.77H191.479V127.576H191.673V127.187H191.867V126.799H192.061V126.605H192.256V126.216H192.45V125.828H192.644V125.44H192.838V125.051H193.032V124.857H193.227V124.469H193.421V124.08H193.615V123.692H193.809V123.498H194.003V123.109H194.198V122.721H194.392V122.332H194.586V121.944H194.78V121.556H194.974V121.361H195.169V120.973H195.363V120.779H195.557V120.585H195.751V120.39H195.945V120.196H196.14V120.002H196.334V119.808H196.528V119.614H196.722V119.225H196.916V119.031H197.111V118.837H197.305V118.643H197.499V118.254H197.693V118.06H197.887V117.672H198.082V117.477H198.276V117.089H198.47V116.895H198.664V116.701H198.858V116.312H199.053V116.118H199.247V115.73H199.441V115.341H199.635V114.953H199.829V114.759H200.024V114.37H200.218V113.982H200.412V113.593H200.606V113.399H200.8V113.011H200.995V112.622H201.189V112.234H201.383V111.846H201.577V111.457H201.771V111.069H201.966V110.68H202.16V110.292H202.354V109.904H202.548V109.515H202.742V109.127H202.937V108.933H203.131V109.515H202.937V110.098H202.742V110.875H202.548V111.457H202.354V112.04H202.16V112.622H201.966V113.399H201.771V113.982H201.577V114.564H201.383V115.147H201.189V115.535H200.995V116.118H200.8V116.701H200.606V117.283H200.412V117.866H200.218V118.448H200.024V119.031H199.829V119.419H199.635V120.002H199.441V120.585H199.247V120.973H199.053V121.556H198.858V122.138H198.664V122.527H198.47V123.109H198.276V123.498H198.082V124.08H197.887V124.469H197.693V125.051H197.499V125.44H197.305V126.022H197.111V126.411H196.916V126.993H196.722V127.382H196.528V127.77H196.334V128.353H196.14V128.741H195.945V129.129H195.751V129.712H195.557V130.1H195.363V130.489H195.169V131.071H194.974V131.46H194.78V131.848H194.586V132.237H194.392V132.819H194.198V133.208H194.003V133.596H193.809V133.984H193.615V134.373H193.421V134.955H193.227V135.344H193.032V135.732H192.838V136.121H192.644V136.509H192.45V136.897H192.256V137.286H192.061V137.868H191.867V138.257H191.673V138.645H191.479V139.034H191.285V139.422H191.09V139.81H190.896V140.199H190.702V140.587H190.508V140.976H190.314V141.364H190.119V141.752H189.925V142.141H189.731V142.529H189.537V142.918H189.343V143.306H189.148V143.694H188.954V144.083H188.76V144.471H188.566V144.665H188.372V144.86H188.177V145.054H187.983V145.248H187.789V145.442H187.595V145.636H187.401V145.831H187.206V146.025H187.012V146.219H186.818V146.413H186.624V146.607H186.43V146.802H186.235V146.996H185.847V147.19H185.653V147.384H185.459V147.578H185.264V147.773H184.876V147.967H184.488V148.161H184.099V148.355H183.711V148.549H183.128V148.744H182.351V148.938" fill="url(#paint2_linear_1_1309)"/>
</g>
</g>
<mask id="mask6_1_1309" style="mask-type:luminance" maskUnits="userSpaceOnUse" x="100" y="73" width="106" height="135">
<path d="M170.94 77.5344C185.711 66.8088 202.754 78.3598 205.034 94.0492C207.316 109.739 183.893 157.246 176.087 163.784C168.28 170.321 172.412 153.76 172.412 153.76C172.412 153.76 146.355 189.934 131.37 196.035C116.386 202.137 124.653 188.063 124.653 188.063C124.653 188.063 104.446 209.464 100.313 207.109C96.1797 204.753 141.21 164.361 170.94 77.5344Z" fill="white"/>
</mask>
<g mask="url(#mask6_1_1309)">
<mask id="mask7_1_1309" style="mask-type:luminance" maskUnits="userSpaceOnUse" x="195" y="93" width="11" height="29">
<path d="M195.215 121.278C200.979 110.207 203.694 100.739 204.888 93.9133C204.912 93.7812 204.933 93.6491 204.952 93.519C204.982 93.6958 205.009 93.8725 205.034 94.0492C205.139 94.7697 205.189 95.5562 205.189 96.4029C205.191 99.817 204.38 104.202 203.014 109.104C200.639 114.184 198.004 118.643 195.215 121.278Z" fill="white"/>
</mask>
<g mask="url(#mask7_1_1309)">
<path d="M195.169 121.361V120.973H195.363V120.585H195.557V120.196H195.751V119.808H195.945V119.419H196.14V119.031H196.334V118.643H196.528V118.254H196.722V117.672H196.916V117.283H197.111V116.895H197.305V116.506H197.499V116.118H197.693V115.73H197.887V115.147H198.082V114.759H198.276V114.37H198.47V113.982H198.664V113.399H198.858V113.011H199.053V112.622H199.247V112.04H199.441V111.651H199.635V111.069H199.829V110.68H200.024V110.098H200.218V109.709H200.412V109.127H200.606V108.544H200.8V107.962H200.995V107.573H201.189V106.991H201.383V106.408H201.577V105.825H201.771V105.243H201.966V104.66H202.16V104.078H202.354V103.495H202.548V102.718H202.742V102.136H202.937V101.359H203.131V100.776H203.325V99.9995H203.519V99.2227H203.713V98.4459H203.908V97.6691H204.102V96.8923H204.296V95.9213H204.49V94.9503H204.684V93.7851H204.879V93.3967H205.073V94.3677H205.267V98.8343H205.073V100.388H204.879V101.747H204.684V102.912H204.49V103.883H204.296V104.854H204.102V105.631H203.908V106.408H203.713V107.185H203.519V107.962H203.325V108.738H203.131V109.321H202.937V109.709H202.742V110.098H202.548V110.486H202.354V110.875H202.16V111.263H201.966V111.651H201.771V112.04H201.577V112.428H201.383V112.817H201.189V113.205H200.995V113.593H200.8V113.788H200.606V114.176H200.412V114.564H200.218V114.953H200.024V115.147H199.829V115.535H199.635V115.924H199.441V116.312H199.247V116.506H199.053V116.701H198.858V117.089H198.664V117.283H198.47V117.672H198.276V117.866H198.082V118.254H197.887V118.448H197.693V118.837H197.499V119.031H197.305V119.225H197.111V119.419H196.916V119.808H196.722V120.002H196.528V120.196H196.334V120.39H196.14V120.585H195.945V120.779H195.751V120.973H195.557V121.167H195.363V121.361" fill="url(#paint3_linear_1_1309)"/>
</g>
</g>
<mask id="mask8_1_1309" style="mask-type:luminance" maskUnits="userSpaceOnUse" x="102" y="197" width="63" height="100">
<path d="M154.071 296.143C150.261 296.143 145.755 295.708 141.164 294.597C129.631 281.743 111.851 262.154 104.722 244.504C99.9493 232.69 102.15 215.842 106.279 200.327L112.907 197.196C112.777 198.055 112.658 198.921 112.55 199.797C111.339 209.666 111.692 220.586 115.748 230.624C127.027 258.548 166.689 290.851 164.38 294.137C163.605 295.238 159.558 296.143 154.071 296.143Z" fill="white"/>
</mask>
<g mask="url(#mask8_1_1309)">
<path d="M154.071 296.143C150.261 296.143 145.755 295.708 141.164 294.597C129.631 281.743 111.851 262.154 104.722 244.504C99.9493 232.69 102.15 215.842 106.279 200.327L112.907 197.196C112.777 198.055 112.658 198.921 112.55 199.797C111.339 209.666 111.692 220.586 115.748 230.624C127.027 258.548 166.689 290.851 164.38 294.137C163.605 295.238 159.558 296.143 154.071 296.143Z" fill="url(#paint4_linear_1_1309)"/>
</g>
<mask id="mask9_1_1309" style="mask-type:luminance" maskUnits="userSpaceOnUse" x="89" y="190" width="63" height="121">
<path d="M141.445 310.473C130.59 310.473 113.975 306.904 105.853 294.252C90.5844 270.464 85.7954 246.504 91.3346 219.364C93.2705 213.791 95.5881 208.732 98.0551 204.211L106.279 200.327C102.15 215.842 99.9493 232.69 104.722 244.504C111.851 262.155 129.631 281.743 141.164 294.598C147.877 302.08 152.473 307.279 151.623 308.487C150.853 309.582 146.867 310.473 141.445 310.473ZM106.693 190.92C106.884 190.669 107.076 190.423 107.266 190.178C107.527 190.186 107.791 190.19 108.056 190.19L106.693 190.92Z" fill="white"/>
</mask>
<g mask="url(#mask9_1_1309)">
<path d="M141.445 310.473C130.59 310.473 113.975 306.904 105.853 294.252C90.5844 270.464 85.7954 246.504 91.3346 219.364C93.2705 213.791 95.5881 208.732 98.0551 204.211L106.279 200.327C102.15 215.842 99.9493 232.69 104.722 244.504C111.851 262.155 129.631 281.743 141.164 294.598C147.877 302.08 152.473 307.279 151.623 308.487C150.853 309.582 146.867 310.473 141.445 310.473ZM106.693 190.92C106.884 190.669 107.076 190.423 107.266 190.178C107.527 190.186 107.791 190.19 108.056 190.19L106.693 190.92Z" fill="url(#paint5_linear_1_1309)"/>
</g>
<mask id="mask10_1_1309" style="mask-type:luminance" maskUnits="userSpaceOnUse" x="60" y="188" width="48" height="132">
<path d="M105.884 319.847C105.884 319.847 59.2757 297.046 60.8483 251.446C61.2951 238.47 66.3125 226.46 73.2612 215.919L98.0551 204.211C95.5881 208.732 93.2706 213.791 91.3346 219.364C82.9529 243.488 81.6679 277.345 105.884 319.847ZM82.4097 203.949C87.6426 197.936 93.2424 192.625 98.4912 188.149C100.952 189.458 103.949 190.087 107.266 190.178C107.076 190.423 106.884 190.669 106.693 190.92L82.4097 203.949Z" fill="white"/>
</mask>
<g mask="url(#mask10_1_1309)">
<path d="M105.884 319.847C105.884 319.847 59.2757 297.046 60.8483 251.446C61.2951 238.47 66.3125 226.46 73.2612 215.919L98.0551 204.211C95.5881 208.732 93.2706 213.791 91.3346 219.364C82.9529 243.488 81.6679 277.345 105.884 319.847ZM82.4097 203.949C87.6426 197.936 93.2424 192.625 98.4912 188.149C100.952 189.458 103.949 190.087 107.266 190.178C107.076 190.423 106.884 190.669 106.693 190.92L82.4097 203.949Z" fill="url(#paint6_linear_1_1309)"/>
</g>
<path d="M251.153 167.002L136.268 186.166L49.6954 227.049L39.4354 220.341L0 228.232V215.245L41.0558 213.548L51.8551 220.341L120.426 183.552L247.374 163.221L251.153 167.002Z" fill="#6E2822"/>
<path d="M233.329 197.241L202.261 191.137L173.609 179.936L168.342 180.816L200.835 192.833L233.329 200.457V197.241Z" fill="#6E2822"/>
<mask id="mask11_1_1309" style="mask-type:luminance" maskUnits="userSpaceOnUse" x="145" y="175" width="11" height="15">
<path d="M154.083 189.784C152.665 189.784 150.607 187.388 148.717 184.649C148.777 181.123 147.874 177.878 145.687 176.763C146.174 176.429 146.647 176.093 147.106 175.757C147.388 175.724 147.666 175.708 147.938 175.708C149.894 175.708 151.596 176.526 152.917 177.831C153.063 177.975 153.204 178.126 153.341 178.282C154.451 179.548 155.243 181.177 155.63 182.937C156.004 184.649 155.995 186.483 155.513 188.215C155.208 189.32 154.707 189.784 154.083 189.784Z" fill="white"/>
</mask>
<g mask="url(#mask11_1_1309)">
<path d="M154.083 189.784C152.665 189.784 150.607 187.388 148.717 184.649C148.777 181.123 147.874 177.878 145.687 176.763C146.174 176.429 146.647 176.093 147.106 175.757C147.388 175.724 147.666 175.708 147.938 175.708C149.894 175.708 151.596 176.526 152.917 177.831C153.063 177.975 153.204 178.126 153.341 178.282C154.451 179.548 155.243 181.177 155.63 182.937C156.004 184.649 155.995 186.483 155.513 188.215C155.208 189.32 154.707 189.784 154.083 189.784Z" fill="url(#paint7_linear_1_1309)"/>
</g>
<mask id="mask12_1_1309" style="mask-type:luminance" maskUnits="userSpaceOnUse" x="141" y="176" width="8" height="16">
<path d="M146.876 191.355C146.003 191.355 144.916 189.456 143.892 187.053C143.615 186.407 143.344 185.721 143.081 185.028C142.443 183.338 141.862 181.593 141.419 180.19C141.353 179.981 141.29 179.779 141.23 179.585C142.809 178.66 144.303 177.714 145.687 176.763C147.874 177.878 148.777 181.123 148.717 184.649C148.688 186.389 148.424 188.197 147.964 189.856C147.672 190.906 147.299 191.355 146.876 191.355Z" fill="white"/>
</mask>
<g mask="url(#mask12_1_1309)">
<path d="M146.876 191.355C146.003 191.355 144.916 189.456 143.892 187.053C143.615 186.407 143.344 185.721 143.081 185.028C142.443 183.338 141.862 181.593 141.419 180.19C141.353 179.981 141.29 179.779 141.23 179.585C142.809 178.66 144.303 177.714 145.687 176.763C147.874 177.878 148.777 181.123 148.717 184.649C148.688 186.389 148.424 188.197 147.964 189.856C147.672 190.906 147.299 191.355 146.876 191.355Z" fill="url(#paint8_linear_1_1309)"/>
</g>
<mask id="mask13_1_1309" style="mask-type:luminance" maskUnits="userSpaceOnUse" x="124" y="185" width="8" height="12">
<path d="M129.973 196.645C129.929 196.645 129.881 196.637 129.83 196.622C128.943 196.367 127.033 193.95 125.211 191.388C125.005 191.097 124.8 190.805 124.597 190.514C124.725 189.271 124.689 188.124 124.436 187.174C125.774 186.733 127.107 186.255 128.431 185.743C129.488 186.498 130.285 187.543 130.785 188.755C131.718 191.017 131.618 193.858 130.248 196.47L130.247 196.472C130.185 196.589 130.092 196.645 129.973 196.645Z" fill="white"/>
</mask>
<g mask="url(#mask13_1_1309)">
<path d="M129.973 196.645C129.929 196.645 129.881 196.637 129.83 196.622C128.943 196.367 127.033 193.95 125.211 191.388C125.005 191.097 124.8 190.805 124.597 190.514C124.725 189.271 124.689 188.124 124.436 187.174C125.774 186.733 127.107 186.255 128.431 185.743C129.488 186.498 130.285 187.543 130.785 188.755C131.718 191.017 131.618 193.858 130.248 196.47L130.247 196.472C130.185 196.589 130.092 196.645 129.973 196.645Z" fill="url(#paint9_linear_1_1309)"/>
</g>
<mask id="mask14_1_1309" style="mask-type:luminance" maskUnits="userSpaceOnUse" x="118" y="187" width="7" height="13">
<path d="M121.052 199.923C120.179 199.923 119.588 197.286 119.196 194.227C118.965 192.415 118.803 190.456 118.693 188.809C120.593 188.357 122.517 187.805 124.436 187.174C124.689 188.124 124.725 189.271 124.597 190.514C124.557 190.92 124.497 191.336 124.424 191.759C124.14 193.379 123.63 195.097 123.002 196.719C122.75 197.371 122.477 198.008 122.194 198.618C121.768 199.529 121.389 199.923 121.052 199.923Z" fill="white"/>
</mask>
<g mask="url(#mask14_1_1309)">
<path d="M121.052 199.923C120.179 199.923 119.588 197.286 119.196 194.227C118.965 192.415 118.803 190.456 118.693 188.809C120.593 188.357 122.517 187.805 124.436 187.174C124.689 188.124 124.725 189.271 124.597 190.514C124.557 190.92 124.497 191.336 124.424 191.759C124.14 193.379 123.63 195.097 123.002 196.719C122.75 197.371 122.477 198.008 122.194 198.618C121.768 199.529 121.389 199.923 121.052 199.923Z" fill="url(#paint10_linear_1_1309)"/>
</g>
<mask id="mask15_1_1309" style="mask-type:luminance" maskUnits="userSpaceOnUse" x="91" y="0" width="158" height="175">
<path d="M92.4444 167.426C143.646 78.2548 133.171 20.7619 167.66 5.48615C175.904 1.83519 187.474 -4.30883e-06 199.262 -4.30883e-06C220.648 -4.30883e-06 242.746 6.03968 246.985 18.2277C253.561 37.135 235.889 54.3974 235.889 54.3974C240.819 39.6013 230.956 36.7252 230.956 36.7252C226.342 42.493 221.322 44.365 216.748 44.365C208.291 44.365 201.364 37.9564 201.364 37.9564C193.965 46.1769 178.757 66.3174 179.578 69.1838C179.941 70.448 185.47 72.2055 191.29 75.1904C192.155 75.6332 193.025 76.1031 193.885 76.6022C200.263 80.3037 206.116 85.617 204.952 93.519C204.933 93.6491 204.912 93.7811 204.888 93.9132C203.694 100.739 200.979 110.207 195.215 121.278C191.143 129.104 185.548 137.731 177.897 146.792C171.28 154.626 163.122 162.788 153.081 171.036C166.58 135.19 170.043 90.639 170.043 90.639L117.64 115.26C111.323 131.17 103.26 148.588 92.4444 167.426Z" fill="white"/>
</mask>
<g mask="url(#mask15_1_1309)">
<path d="M92.4444 167.426C143.646 78.2548 133.171 20.7619 167.66 5.48615C175.904 1.83519 187.474 -4.30883e-06 199.262 -4.30883e-06C220.648 -4.30883e-06 242.746 6.03968 246.985 18.2277C253.561 37.135 235.889 54.3974 235.889 54.3974C240.819 39.6013 230.956 36.7252 230.956 36.7252C226.342 42.493 221.322 44.365 216.748 44.365C208.291 44.365 201.364 37.9564 201.364 37.9564C193.965 46.1769 178.757 66.3174 179.578 69.1838C179.941 70.448 185.47 72.2055 191.29 75.1904C192.155 75.6332 193.025 76.1031 193.885 76.6022C200.263 80.3037 206.116 85.617 204.952 93.519C204.933 93.6491 204.912 93.7811 204.888 93.9132C203.694 100.739 200.979 110.207 195.215 121.278C191.143 129.104 185.548 137.731 177.897 146.792C171.28 154.626 163.122 162.788 153.081 171.036C166.58 135.19 170.043 90.639 170.043 90.639L117.64 115.26C111.323 131.17 103.26 148.588 92.4444 167.426Z" fill="url(#paint11_linear_1_1309)"/>
</g>
<mask id="mask16_1_1309" style="mask-type:luminance" maskUnits="userSpaceOnUse" x="91" y="0" width="158" height="191">
<path d="M235.889 54.3974C235.889 54.3974 253.561 37.135 246.985 18.2277C240.409 -0.67771 190.863 -4.78899 167.66 5.48613C133.171 20.7619 143.646 78.2548 92.4444 167.426C85.0458 204.005 130.399 188.788 148.342 174.825C190.275 142.191 202.01 110.374 204.888 93.9132C207.764 77.4528 180.402 72.0502 179.578 69.1838C178.757 66.3174 193.965 46.1769 201.364 37.9564C201.364 37.9564 217.803 53.1642 230.956 36.7252C230.956 36.7252 240.819 39.6013 235.889 54.3974Z" fill="white"/>
</mask>
<g mask="url(#mask16_1_1309)">
<mask id="mask17_1_1309" style="mask-type:luminance" maskUnits="userSpaceOnUse" x="158" y="4" width="66" height="49">
<path d="M158.657 25.081C158.657 38.7177 176.116 52.3622 193.027 52.3622C209.936 52.3622 223.642 41.3063 223.642 27.6696C223.642 14.0348 209.936 4.64725 193.027 4.64725C176.116 4.64725 158.657 11.4443 158.657 25.081Z" fill="white"/>
</mask>
<g mask="url(#mask17_1_1309)">
<path d="M188.566 52.2263V52.0321H187.206V51.8379H186.235V51.6437H185.264V51.4495H184.488V51.2553H183.711V51.0611H183.128V50.8669H182.351V50.6727H181.769V50.4785H181.186V50.2843H180.604V50.0901H180.215V49.8959H179.633V49.7017H179.244V49.5075H178.662V49.3133H178.273V49.1191H177.885V48.9249H177.302V48.7307H176.914V48.5365H176.525V48.3423H176.137V48.1481H175.943V47.9539H175.554V47.7597H175.166V47.5655H174.778V47.3713H174.389V47.1771H174.001V46.9829H173.807V46.7887H173.418V46.5945H173.03V46.4003H172.836V46.2061H172.447V46.0119H172.253V45.8177H171.865V45.6235H171.67V45.4293H171.282V45.2351H171.088V45.0409H170.699V44.8467H170.505V44.6525H170.311V44.4583H169.923V44.2641H169.728V44.0699H169.534V43.8757H169.146V43.6815H168.952V43.4873H168.757V43.2931H168.563V43.0989H168.369V42.9047H168.175V42.7105H167.786V42.5163H167.592V42.3221H167.398V42.1279H167.204V41.9337H167.01V41.7395H166.815V41.5453H166.621V41.3511H166.427V41.1569H166.233V40.9627H166.039V40.7685H165.844V40.5743H165.65V40.3801H165.456V40.1859H165.262V39.9917H165.068V39.7975H164.873V39.6033H164.679V39.4091H164.485V39.0207H164.291V38.8265H164.097V38.6323H163.902V38.4381H163.708V38.0497H163.514V37.8555H163.32V37.6613H163.126V37.4671H162.931V37.0787H162.737V36.8845H162.543V36.4961H162.349V36.3019H162.155V35.9135H161.96V35.7193H161.766V35.3309H161.572V35.1367H161.378V34.7483H161.184V34.3599H160.989V33.9715H160.795V33.5831H160.601V33.1947H160.407V32.8063H160.213V32.2237H160.018V31.8353H159.824V31.2527H159.63V30.8643H159.436V30.2817H159.242V29.3107H159.047V28.5339H158.853V27.7571H158.659V25.8151H158.465V24.2615H158.659V22.5137H158.853V21.7369H159.047V20.9601H159.242V20.1833H159.436V19.7949H159.63V19.4065H159.824V18.8239H160.018V18.4355H160.213V18.0471H160.407V17.6587H160.601V17.4645H160.795V17.0761H160.989V16.6877H161.184V16.4935H161.378V16.1051H161.572V15.9109H161.766V15.7167H161.96V15.5225H162.155V15.1341H162.349V14.9399H162.543V14.7457H162.737V14.5515H162.931V14.3573H163.126V14.1631H163.32V13.9689H163.514V13.7747H163.708V13.5805H163.902V13.3863H164.097V13.1921H164.291V12.9979H164.485V12.8037H164.873V12.6095H165.068V12.4153H165.262V12.2211H165.456V12.0269H165.844V11.8327H166.039V11.6385H166.427V11.4443H166.621V11.2501H166.815V11.0559H167.204V10.8617H167.592V10.6675H167.786V10.4733H168.175V10.2791H168.563V10.0849H168.757V9.89066H169.146V9.69646H169.534V9.50226H169.923V9.30806H170.311V9.11386H170.699V8.91966H171.088V8.72546H171.476V8.53126H172.059V8.33706H172.447V8.14286H173.03V7.94866H173.418V7.75446H174.001V7.56026H174.583V7.36606H175.166V7.17186H175.749V6.97766H176.331V6.78346H176.914V6.58926H177.691V6.39506H178.467V6.20086H179.244V6.00666H180.021V5.81246H180.992V5.61826H182.157V5.42406H183.128V5.22986H184.488V5.03566H186.041V4.84146H188.177V4.64726H197.111V4.84146H198.858V5.03566H200.218V5.22986H201.189V5.42406H202.354V5.61826H203.131V5.81246H203.713V6.00666H204.49V6.20086H205.267V6.39506H205.85V6.58926H206.432V6.78346H207.015V6.97766H207.597V7.17186H207.986V7.36606H208.374V7.56026H208.957V7.75446H209.345V7.94866H209.734V8.14286H210.316V8.33706H210.51V8.53126H210.899V8.72546H211.287V8.91966H211.676V9.11386H212.064V9.30806H212.452V9.50226H212.647V9.69646H213.035V9.89066H213.229V10.0849H213.618V10.2791H213.812V10.4733H214.2V10.6675H214.589V10.8617H214.783V11.0559H214.977V11.2501H215.171V11.4443H215.56V11.6385H215.754V11.8327H215.948V12.0269H216.142V12.2211H216.531V12.4153H216.725V12.6095H216.919V12.8037H217.113V12.9979H217.307V13.1921H217.502V13.3863H217.696V13.5805H217.89V13.7747H218.084V13.9689H218.278V14.1631H218.473V14.3573H218.667V14.5515H218.861V14.9399H219.055V15.1341H219.249V15.3283H219.444V15.5225H219.638V15.7167H219.832V16.1051H220.026V16.2993H220.22V16.6877H220.415V16.8819H220.609V17.2703H220.803V17.4645H220.997V17.8529H221.191V18.2413H221.386V18.6297H221.58V19.0181H221.774V19.4065H221.968V19.7949H222.162V20.1833H222.357V20.5717H222.551V21.1543H222.745V21.9311H222.939V22.5137H223.133V23.2905H223.328V24.2615H223.522V25.4267H223.716V29.8933H223.522V31.0585H223.328V32.2237H223.133V33.0005H222.939V33.5831H222.745V34.1657H222.551V34.7483H222.357V35.3309H222.162V35.7193H221.968V36.1077H221.774V36.6903H221.58V37.0787H221.386V37.4671H221.191V37.8555H220.997V38.0497H220.803V38.4381H220.609V38.8265H220.415V39.0207H220.22V39.4091H220.026V39.6033H219.832V39.9917H219.638V40.1859H219.444V40.3801H219.249V40.7685H219.055V40.9627H218.861V41.1569H218.667V41.5453H218.473V41.7395H218.278V41.9337H218.084V42.1279H217.89V42.3221H217.696V42.5163H217.502V42.7105H217.307V42.9047H217.113V43.0989H216.919V43.4873H216.531V43.6815H216.336V43.8757H216.142V44.0699H215.948V44.2641H215.754V44.4583H215.171V44.2641H213.423V44.0699H212.647V43.8757H211.87V43.6815H211.093V43.4873H210.51V43.2931H209.928V43.0989H209.345V42.9047H208.957V42.7105H208.568V42.5163H207.986V42.3221H207.597V42.1279H207.209V41.9337H206.821V41.7395H206.432V41.5453H206.238V41.3511H205.85V41.1569H205.461V40.9627H205.073V40.7685H204.879V40.5743H204.49V40.3801H204.296V40.1859H203.908V39.9917H203.713V39.7975H203.325V39.6033H203.131V39.4091H202.742V39.2149H202.548V39.0207H202.354V38.8265H202.16V38.6323H201.771V38.4381H201.577V38.2439H201.189V38.4381H200.995V38.6323H200.8V38.8265H200.606V39.2149H200.412V39.4091H200.218V39.6033H200.024V39.7975H199.829V39.9917H199.635V40.1859H199.441V40.5743H199.247V40.7685H199.053V40.9627H198.858V41.1569H198.664V41.3511H198.47V41.5453H198.276V41.9337H198.082V42.1279H197.887V42.3221H197.693V42.5163H197.499V42.9047H197.305V43.0989H197.111V43.2931H196.916V43.4873H196.722V43.6815H196.528V44.0699H196.334V44.2641H196.14V44.4583H195.945V44.6525H195.751V45.0409H195.557V45.2351H195.363V45.4293H195.169V45.6235H194.974V46.0119H194.78V46.2061H194.586V46.4003H194.392V46.5945H194.198V46.9829H194.003V47.1771H193.809V47.3713H193.615V47.5655H193.421V47.9539H193.227V48.1481H193.032V48.3423H192.838V48.7307H192.644V48.9249H192.45V49.1191H192.256V49.3133H192.061V49.7017H191.867V49.8959H191.673V50.0901H191.479V50.4785H191.285V50.6727H191.09V50.8669H190.896V51.2553H190.702V51.4495H190.508V51.6437H190.314V52.0321H190.119V52.2263" fill="url(#paint12_linear_1_1309)"/>
</g>
</g>
<mask id="mask18_1_1309" style="mask-type:luminance" maskUnits="userSpaceOnUse" x="91" y="0" width="158" height="191">
<path d="M235.889 54.3974C235.889 54.3974 253.561 37.135 246.985 18.2277C240.409 -0.67771 190.863 -4.78899 167.66 5.48613C133.171 20.7619 143.646 78.2548 92.4444 167.426C85.0458 204.005 130.399 188.788 148.342 174.825C190.275 142.191 202.01 110.374 204.888 93.9132C207.764 77.4528 180.402 72.0502 179.578 69.1838C178.757 66.3174 193.965 46.1769 201.364 37.9564C201.364 37.9564 217.803 53.1642 230.956 36.7252C230.956 36.7252 240.819 39.6013 235.889 54.3974Z" fill="white"/>
</mask>
<g mask="url(#mask18_1_1309)">
<mask id="mask19_1_1309" style="mask-type:luminance" maskUnits="userSpaceOnUse" x="201" y="-18" width="103" height="110">
<path d="M201.364 37.9565C206.137 29.9729 210.444 14.0018 205.195 -0.00774938C199.946 -14.0154 241.328 -17.274 241.328 -17.274C241.328 -17.274 304.216 26.0637 303.89 27.0405C303.563 28.0173 256.969 91.0876 256.969 91.0876L201.364 37.9565Z" fill="white"/>
</mask>
<g mask="url(#mask19_1_1309)">
<path d="M235.756 54.5566V54.1682H235.951V53.5856H236.145V52.8088H236.339V52.032H236.533V51.2552H236.727V50.2842H236.922V48.9248H237.116V45.0408H236.922V43.8756H236.727V43.0988H236.533V42.5162H236.339V42.1278H236.145V41.5452H235.951V41.1568H235.756V40.9626H235.562V40.5742H235.368V40.1858H235.174V39.9916H234.98V39.7974H234.785V39.6032H234.591V39.2148H234.397V39.0206H234.203V38.8264H234.009V38.6322H233.814V38.438H233.426V38.2438H233.232V38.0496H233.038V37.8554H232.649V37.6612H232.455V37.467H232.067V37.2728H231.678V37.0786H231.29V36.8844H230.901V37.0786H230.707V37.467H230.513V37.6612H230.319V37.8554H230.125V38.0496H229.93V38.2438H229.736V38.438H229.542V38.6322H229.348V38.8264H229.154V39.0206H228.959V39.2148H228.765V39.409H228.571V39.6032H228.377V39.7974H228.183V39.9916H227.794V40.1858H227.6V40.38H227.406V40.5742H227.212V40.7684H226.823V40.9626H226.629V41.1568H226.435V41.351H226.241V41.5452H225.852V41.7394H225.658V41.9336H225.27V42.1278H224.881V42.322H224.493V42.5162H224.104V42.7104H223.91V42.9046H223.522V43.0988H222.939V43.293H222.551V43.4872H221.968V43.6814H221.386V43.8756H220.803V44.0698H219.638V44.264H218.473V44.4582H215.171V44.264H213.423V44.0698H212.647V43.8756H211.87V43.6814H211.093V43.4872H210.51V43.293H209.928V43.0988H209.345V42.9046H208.957V42.7104H208.568V42.5162H207.986V42.322H207.597V42.1278H207.209V41.9336H206.821V41.7394H206.432V41.5452H206.238V41.351H205.85V41.1568H205.461V40.9626H205.073V40.7684H204.879V40.5742H204.49V40.38H204.296V40.1858H203.908V39.9916H203.713V39.7974H203.325V39.6032H203.131V39.409H202.742V39.2148H202.548V39.0206H202.354V38.8264H202.16V38.6322H201.771V38.438H201.577V38.2438H201.383V38.0496H201.189V37.8554H201.383V37.467H201.577V37.0786H201.771V36.8844H201.966V36.496H202.16V36.1076H202.354V35.7192H202.548V35.3308H202.742V34.9424H202.937V34.554H203.131V33.9714H203.325V33.583H203.519V33.1946H203.713V32.612H203.908V32.2236H204.102V31.641H204.296V31.0584H204.49V30.67H204.684V30.0874H204.879V29.5048H205.073V28.728H205.267V28.1454H205.461V27.5628H205.655V26.786H205.85V26.0092H206.044V25.2324H206.238V24.4556H206.432V23.4846H206.626V22.3194H206.821V21.3484H207.015V19.7948H207.209V18.047H207.403V10.0848H207.209V8.14285H207.015V6.97765H206.821V6.00665H206.626V5.03565H206.432V4.25885H206.238V3.48205H206.044V2.70525H205.85V2.12265H205.655V1.34585H205.461V0.763246H205.267V0.374846H205.073V0.180646H208.374V0.374846H210.316V0.569046H212.258V0.763246H214.006V0.957446H215.171V1.15165H216.336V1.34585H217.502V1.54005H218.667V1.73425H219.832V1.92845H220.609V2.12265H221.58V2.31685H222.357V2.51105H223.133V2.70525H223.91V2.89945H224.881V3.09365H225.464V3.28785H226.241V3.48205H226.823V3.67625H227.406V3.87045H227.988V4.06465H228.571V4.25885H229.348V4.45305H229.93V4.64725H230.513V4.84145H230.901V5.03565H231.484V5.22985H231.872V5.42405H232.261V5.61825H232.843V5.81245H233.232V6.00665H233.62V6.20085H234.203V6.39505H234.591V6.58925H235.174V6.78345H235.368V6.97765H235.756V7.17185H236.145V7.36605H236.533V7.56025H236.922V7.75445H237.116V7.94865H237.504V8.14285H237.893V8.33705H238.281V8.53125H238.475V8.72545H238.864V8.91965H239.252V9.11385H239.446V9.30805H239.835V9.50225H240.029V9.69645H240.223V9.89065H240.417V10.0848H240.806V10.279H241V10.4732H241.194V10.6674H241.582V10.8616H241.777V11.0558H241.971V11.25H242.165V11.4442H242.553V11.6384H242.748V11.8326H242.942V12.0268H243.136V12.221H243.33V12.6094H243.524V12.8036H243.719V12.9978H243.913V13.192H244.107V13.3862H244.301V13.5804H244.495V13.9688H244.69V14.163H244.884V14.3572H245.078V14.5514H245.272V14.7456H245.466V15.134H245.661V15.5224H245.855V15.7166H246.049V16.105H246.243V16.4934H246.437V16.8818H246.632V17.076H246.826V17.6586H247.02V18.2412H247.214V18.8238H247.408V19.4064H247.603V20.1832H247.797V21.1542H247.991V21.931H248.185V23.4846H248.379V25.0382H248.574V28.9222H248.379V30.4758H248.185V32.0294H247.991V33.0004H247.797V33.7772H247.603V34.7482H247.408V35.525H247.214V36.1076H247.02V36.6902H246.826V37.2728H246.632V37.8554H246.437V38.438H246.243V38.8264H246.049V39.2148H245.855V39.7974H245.661V40.1858H245.466V40.7684H245.272V41.1568H245.078V41.5452H244.884V41.9336H244.69V42.322H244.495V42.7104H244.301V43.0988H244.107V43.4872H243.913V43.8756H243.719V44.0698H243.524V44.4582H243.33V44.8466H243.136V45.235H242.942V45.4292H242.748V45.8176H242.553V46.206H242.359V46.4002H242.165V46.7886H241.971V46.9828H241.777V47.3712H241.582V47.5654H241.388V47.9538H241.194V48.148H241V48.5364H240.806V48.7306H240.611V49.119H240.417V49.3132H240.223V49.5074H240.029V49.8958H239.835V50.09H239.64V50.2842H239.446V50.6726H239.252V50.8668H239.058V51.061H238.864V51.2552H238.669V51.6436H238.475V51.8378H238.281V52.032H238.087V52.2262H237.893V52.4204H237.698V52.8088H237.504V53.003H237.31V53.1972H237.116V53.3914H236.922V53.5856H236.727V53.7798H236.533V53.974H236.339V54.1682H236.145V54.3624H235.951V54.5566" fill="url(#paint13_linear_1_1309)"/>
</g>
</g>
<mask id="mask20_1_1309" style="mask-type:luminance" maskUnits="userSpaceOnUse" x="91" y="0" width="158" height="191">
<path d="M235.889 54.3974C235.889 54.3974 253.561 37.135 246.985 18.2277C240.409 -0.67771 190.863 -4.78899 167.66 5.48613C133.171 20.7619 143.646 78.2548 92.4444 167.426C85.0458 204.005 130.399 188.788 148.342 174.825C190.275 142.191 202.01 110.374 204.888 93.9132C207.764 77.4528 180.402 72.0502 179.578 69.1838C178.757 66.3174 193.965 46.1769 201.364 37.9564C201.364 37.9564 217.803 53.1642 230.956 36.7252C230.956 36.7252 240.819 39.6013 235.889 54.3974Z" fill="white"/>
</mask>
<g mask="url(#mask20_1_1309)">
<mask id="mask21_1_1309" style="mask-type:luminance" maskUnits="userSpaceOnUse" x="201" y="-18" width="103" height="110">
<path d="M201.364 37.9565C206.137 29.9729 210.444 14.0018 205.195 -0.00774938C199.946 -14.0154 241.328 -17.274 241.328 -17.274C241.328 -17.274 304.216 26.0637 303.89 27.0405C303.563 28.0173 256.969 91.0876 256.969 91.0876L201.364 37.9565Z" fill="white"/>
</mask>
<g mask="url(#mask21_1_1309)">
<mask id="mask22_1_1309" style="mask-type:luminance" maskUnits="userSpaceOnUse" x="196" y="17" width="42" height="42">
<path d="M207.428 17.7791C205.972 30.9439 207.875 34.9871 215.684 32.5518C223.493 30.1146 237.316 38.5332 237.096 44.6078C236.875 50.6824 214.798 58.5514 214.798 58.5514L196.695 52.1777C196.695 52.1777 202.422 22.5079 207.428 17.7791Z" fill="white"/>
</mask>
<g mask="url(#mask22_1_1309)">
<path d="M236.922 45.0409V43.8757H236.727V43.0989H236.533V42.5163H236.339V42.1279H236.145V41.5453H235.951V41.1569H236.145V41.3511H236.339V41.7395H236.533V42.1279H236.727V42.7105H236.922V43.0989H237.116V45.0409H236.922ZM215.171 44.4583V44.2641H213.423V44.0699H212.647V43.8757H211.87V43.6815H211.093V43.4873H210.51V43.2931H209.928V43.0989H209.345V42.9047H208.957V42.7105H208.568V42.5163H207.986V42.3221H207.597V42.1279H207.209V41.9337H206.821V41.7395H206.432V41.5453H206.238V41.3511H205.85V41.1569H205.461V40.9627H205.073V40.7685H204.879V40.5743H204.49V40.3801H204.296V40.1859H203.908V39.9917H203.713V39.7975H203.325V39.6033H203.131V39.4091H202.742V39.2149H202.548V39.0207H202.354V38.8265H202.16V38.6323H201.771V38.4381H201.577V38.2439H201.383V38.0497H201.189V37.8555H201.383V37.4671H201.577V37.0787H201.771V36.8845H201.966V36.4961H202.16V36.1077H202.354V35.7193H202.548V35.3309H202.742V34.9425H202.937V34.5541H203.131V33.9715H203.325V33.5831H203.519V33.1947H203.713V32.6121H203.908V32.2237H204.102V31.6411H204.296V31.0585H204.49V30.6701H204.684V30.0875H204.879V29.5049H205.073V28.7281H205.267V28.1455H205.461V27.5629H205.655V26.7861H205.85V26.0093H206.044V25.2325H206.238V24.4557H206.432V23.4847H206.626V22.3195H206.821V21.3485H207.015V19.7949H207.209V18.0471H207.403V20.1833H207.209V25.0383H207.015V26.0093H207.209V27.5629H207.403V28.9223H207.597V29.5049H207.792V30.0875H207.986V30.6701H208.18V31.0585H208.374V31.2527H208.568V31.4469H208.763V31.6411H208.957V32.0295H209.151V32.2237H209.345V32.4179H209.734V32.6121H210.316V32.8063H210.705V33.0005H213.618V32.8063H214.589V32.6121H215.365V32.4179H216.142V32.2237H217.113V32.0295H220.415V32.2237H221.774V32.4179H222.745V32.6121H223.328V32.8063H224.104V33.0005H224.687V33.1947H225.27V33.3889H225.658V33.5831H226.241V33.7773H226.629V33.9715H227.017V34.1657H227.6V34.3599H227.988V34.5541H228.377V34.7483H228.571V34.9425H228.959V35.1367H229.348V35.3309H229.736V35.5251H229.93V35.7193H230.319V35.9135H230.707V36.1077H230.901V36.3019H231.29V36.4961H231.484V36.6903H231.678V36.8845H232.067V37.0787H232.261V37.2729H232.649V37.4671H232.843V37.6613H233.038V37.8555H232.649V37.6613H232.455V37.4671H232.067V37.2729H231.678V37.0787H231.29V36.8845H230.901V37.0787H230.707V37.4671H230.513V37.6613H230.319V37.8555H230.125V38.0497H229.93V38.2439H229.736V38.4381H229.542V38.6323H229.348V38.8265H229.154V39.0207H228.959V39.2149H228.765V39.4091H228.571V39.6033H228.377V39.7975H228.183V39.9917H227.794V40.1859H227.6V40.3801H227.406V40.5743H227.212V40.7685H226.823V40.9627H226.629V41.1569H226.435V41.3511H226.241V41.5453H225.852V41.7395H225.658V41.9337H225.27V42.1279H224.881V42.3221H224.493V42.5163H224.104V42.7105H223.91V42.9047H223.522V43.0989H222.939V43.2931H222.551V43.4873H221.968V43.6815H221.386V43.8757H220.803V44.0699H219.638V44.2641H218.473V44.4583H215.171ZM235.756 41.1569V40.9627H235.562V40.5743H235.756V40.7685H235.951V41.1569H235.756ZM235.368 40.1859H235.562V40.5743H235.368V40.1859ZM235.174 39.9917H235.368V40.1859H235.174V39.9917ZM234.98 39.7975H235.174V39.9917H234.98V39.7975ZM234.785 39.6033H234.98V39.7975H234.785V39.6033ZM234.591 39.4091H234.785V39.6033H234.591V39.4091ZM233.426 38.2439H233.62V38.4381H233.426V38.2439ZM233.232 38.0497H233.426V38.2439H233.232V38.0497ZM233.038 37.8555H233.232V38.0497H233.038V37.8555ZM207.403 17.6587H207.597V18.0471H207.403V17.6587Z" fill="url(#paint14_linear_1_1309)"/>
</g>
</g>
</g>
<mask id="mask23_1_1309" style="mask-type:luminance" maskUnits="userSpaceOnUse" x="91" y="0" width="158" height="191">
<path d="M235.889 54.3974C235.889 54.3974 253.561 37.135 246.985 18.2277C240.409 -0.67771 190.863 -4.78899 167.66 5.48613C133.171 20.7619 143.646 78.2548 92.4444 167.426C85.0458 204.005 130.399 188.788 148.342 174.825C190.275 142.191 202.01 110.374 204.888 93.9132C207.764 77.4528 180.402 72.0502 179.578 69.1838C178.757 66.3174 193.965 46.1769 201.364 37.9564C201.364 37.9564 217.803 53.1642 230.956 36.7252C230.956 36.7252 240.819 39.6013 235.889 54.3974Z" fill="white"/>
</mask>
<g mask="url(#mask23_1_1309)">
<mask id="mask24_1_1309" style="mask-type:luminance" maskUnits="userSpaceOnUse" x="91" y="90" width="80" height="101">
<path d="M108.121 190.19C107.833 190.19 107.549 190.186 107.266 190.178C103.949 190.087 100.952 189.458 98.4913 188.149C94.2766 185.908 91.6314 181.674 91.6366 174.728C91.6382 172.564 91.8968 170.137 92.4445 167.426C103.26 148.588 111.323 131.171 117.64 115.26L170.043 90.6391C170.043 90.6391 166.581 135.191 153.081 171.036C151.545 172.298 149.967 173.561 148.342 174.825C147.513 175.47 146.625 176.118 145.687 176.763C144.303 177.714 142.809 178.66 141.23 179.585C136.215 182.521 130.348 185.228 124.436 187.174C122.518 187.805 120.593 188.357 118.693 188.809C115.014 189.685 111.422 190.19 108.121 190.19Z" fill="white"/>
</mask>
<g mask="url(#mask24_1_1309)">
<path d="M106.031 190.302V190.108H104.283V189.914H103.118V189.72H102.147V189.526H101.37V189.331H100.787V189.137H100.205V188.943H99.8165V188.749H99.2339V188.555H98.8455V188.36H98.4571V188.166H98.0687V187.972H97.8745V187.778H97.4861V187.584H97.0977V187.389H96.9035V187.195H96.7093V187.001H96.3209V186.807H96.1267V186.613H95.9325V186.418H95.7383V186.224H95.5441V186.03H95.3499V185.836H95.1557V185.642H94.9615V185.447H94.7673V185.253H94.5731V184.865H94.3789V184.671H94.1847V184.476H93.9905V184.088H93.7963V183.7H93.6021V183.505H93.4079V183.117H93.2137V182.729H93.0195V182.34H92.8253V181.758H92.6311V181.369H92.4369V180.592H92.2427V180.01H92.0485V179.039H91.8543V177.874H91.6601V173.99H91.4659V173.795H91.6601V171.271H91.8543V169.717H92.0485V168.358H92.2427V167.387H92.4369V166.998H92.6311V166.61H92.8253V166.416H93.0195V166.027H93.2137V165.639H93.4079V165.251H93.6021V165.056H93.7963V164.668H93.9905V164.28H94.1847V163.891H94.3789V163.503H94.5731V163.309H94.7673V162.92H94.9615V162.532H95.1557V162.143H95.3499V161.755H95.5441V161.561H95.7383V161.172H95.9325V160.784H96.1267V160.396H96.3209V160.007H96.5151V159.619H96.7093V159.425H96.9035V159.036H97.0977V158.648H97.2919V158.259H97.4861V157.871H97.6803V157.483H97.8745V157.094H98.0687V156.9H98.2629V156.512H98.4571V156.123H98.6513V155.735H98.8455V155.346H99.0397V154.958H99.2339V154.57H99.4281V154.181H99.6223V153.987H99.8165V153.599H100.011V153.21H100.205V152.822H100.399V152.433H100.593V152.045H100.787V151.657H100.982V151.268H101.176V150.88H101.37V150.491H101.564V150.103H101.758V149.715H101.953V149.326H102.147V148.938H102.341V148.549H102.535V148.161H102.729V147.967H102.924V147.578H103.118V147.19H103.312V146.802H103.506V146.413H103.7V146.025H103.895V145.636H104.089V145.054H104.283V144.665H104.477V144.277H104.671V143.889H104.866V143.5H105.06V143.112H105.254V142.723H105.448V142.335H105.642V141.947H105.837V141.558H106.031V141.17H106.225V140.781H106.419V140.393H106.613V140.005H106.808V139.616H107.002V139.228H107.196V138.645H107.39V138.257H107.584V137.868H107.779V137.48H107.973V137.092H108.167V136.703H108.361V136.315H108.555V135.926H108.75V135.344H108.944V134.955H109.138V134.567H109.332V134.179H109.526V133.79H109.721V133.402H109.915V132.819H110.109V132.431H110.303V132.042H110.497V131.654H110.692V131.071H110.886V130.683H111.08V130.295H111.274V129.906H111.468V129.324H111.663V128.935H111.857V128.547H112.051V128.158H112.245V127.576H112.439V127.187H112.634V126.799H112.828V126.216H113.022V125.828H113.216V125.44H113.41V124.857H113.605V124.469H113.799V124.08H113.993V123.498H114.187V123.109H114.381V122.721H114.576V122.138H114.77V121.75H114.964V121.361H115.158V120.779H115.352V120.39H115.547V119.808H115.741V119.419H115.935V118.837H116.129V118.448H116.323V117.866H116.518V117.477H116.712V117.089H116.906V116.506H117.1V116.118H117.294V115.535H117.489V115.147H117.877V114.953H118.265V114.759H118.654V114.564H119.042V114.37H119.431V114.176H119.819V113.982H120.207V113.788H120.596V113.593H121.178V113.399H121.567V113.205H121.955V113.011H122.344V112.817H122.732V112.622H123.12V112.428H123.509V112.234H123.897V112.04H124.48V111.846H124.868V111.651H125.257V111.457H125.645V111.263H126.033V111.069H126.422V110.875H126.81V110.68H127.199V110.486H127.781V110.292H128.17V110.098H128.558V109.904H128.946V109.709H129.335V109.515H129.723V109.321H130.112V109.127H130.5V108.933H131.083V108.738H131.471V108.544H131.859V108.35H132.248V108.156H132.636V107.962H133.025V107.767H133.413V107.573H133.996V107.379H134.384V107.185H134.772V106.991H135.161V106.796H135.549V106.602H135.938V106.408H136.326V106.214H136.714V106.02H137.297V105.825H137.685V105.631H138.074V105.437H138.462V105.243H138.851V105.049H139.239V104.854H139.627V104.66H140.016V104.466H140.598V104.272H140.987V104.078H141.375V103.883H141.764V103.689H142.152V103.495H142.54V103.301H142.929V103.107H143.317V102.912H143.9V102.718H144.288V102.524H144.677V102.33H145.065V102.136H145.453V101.941H145.842V101.747H146.23V101.553H146.813V101.359H147.201V101.165H147.59V100.97H147.978V100.776H148.366V100.582H148.755V100.388H149.143V100.194H149.532V99.9994H150.114V99.8052H150.503V99.611H150.891V99.4168H151.279V99.2226H151.668V99.0284H152.056V98.8342H152.445V98.64H152.833V98.4458H153.416V98.2516H153.804V98.0574H154.192V97.8632H154.581V97.669H154.969V97.4748H155.358V97.2806H155.746V97.0864H156.134V96.8922H156.717V96.698H157.105V96.5038H157.494V96.3096H157.882V96.1154H158.271V95.9212H158.659V95.727H159.047V95.5328H159.436V95.3386H160.018V95.1444H160.407V94.9502H160.795V94.756H161.184V94.5618H161.572V94.3676H161.96V94.1734H162.349V93.9792H162.931V93.785H163.32V93.5908H163.708V93.3966H164.097V93.2024H164.485V93.0082H164.873V92.814H165.262V92.6198H165.65V92.4256H166.233V92.2314H166.621V92.0372H167.01V91.843H167.398V91.6488H167.786V91.4546H168.175V91.2604H168.563V91.0662H168.952V90.872H169.534V90.6778H169.923V90.4836H170.117V92.0372H169.923V94.1734H169.728V95.9212H169.534V97.8632H169.34V99.4168H169.146V101.165H168.952V102.718H168.757V104.272H168.563V105.631H168.369V107.185H168.175V108.544H167.981V109.904H167.786V111.263H167.592V112.622H167.398V113.788H167.204V114.953H167.01V116.312H166.815V117.477H166.621V118.643H166.427V119.808H166.233V120.973H166.039V121.944H165.844V123.109H165.65V124.274H165.456V125.245H165.262V126.216H165.068V127.382H164.873V128.353H164.679V129.324H164.485V130.295H164.291V131.266H164.097V132.237H163.902V133.208H163.708V134.179H163.514V134.955H163.32V135.926H163.126V136.897H162.931V137.674H162.737V138.645H162.543V139.422H162.349V140.199H162.155V141.17H161.96V141.947H161.766V142.723H161.572V143.694H161.378V144.471H161.184V145.248H160.989V146.025H160.795V146.607H160.601V147.384H160.407V148.161H160.213V148.938H160.018V149.715H159.824V150.491H159.63V151.268H159.436V151.851H159.242V152.628H159.047V153.21H158.853V153.987H158.659V154.57H158.465V155.346H158.271V155.929H158.076V156.706H157.882V157.288H157.688V158.065H157.494V158.648H157.3V159.23H157.105V159.813H156.911V160.396H156.717V160.978H156.523V161.755H156.329V162.338H156.134V162.92H155.94V163.503H155.746V164.085H155.552V164.668H155.358V165.251H155.163V165.833H154.969V166.416H154.775V166.998H154.581V167.581H154.387V168.164H154.192V168.552H153.998V169.135H153.804V169.717H153.61V170.3H153.416V170.688H153.221V171.077H153.027V171.271H152.833V171.465H152.639V171.659H152.445V171.853H152.056V172.048H151.862V172.242H151.668V172.436H151.474V172.63H151.279V172.824H150.891V173.019H150.697V173.213H150.503V173.407H150.308V173.601H149.92V173.795H149.726V173.99H149.532V174.184H149.337V174.378H148.949V174.572H148.755V174.766H148.561V174.961H148.172V175.155H147.978V175.349H147.784V175.543H147.395V175.737H147.201V175.932H147.007V176.126H146.619V176.32H146.424V176.514H146.036V176.708H145.842V176.903H145.648V177.097H145.259V177.291H145.065V177.485H144.677V177.679H144.288V177.874H144.094V178.068H143.706V178.262H143.511V178.456H143.123V178.65H142.735V178.845H142.54V179.039H142.152V179.233H141.958V179.427H141.569V179.621H141.181V179.816H140.987V180.01H140.598V180.204H140.21V180.398H139.822V180.592H139.627V180.787H139.239V180.981H138.851V181.175H138.462V181.369H138.074V181.563H137.685V181.758H137.297V181.952H136.909V182.146H136.52V182.34H136.132V182.534H135.743V182.729H135.355V182.923H134.967V183.117H134.578V183.311H134.19V183.505H133.801V183.7H133.413V183.894H133.025V184.088H132.442V184.282H132.054V184.476H131.471V184.671H131.083V184.865H130.694V185.059H130.112V185.253H129.723V185.447H129.335V185.642H128.752V185.836H128.17V186.03H127.781V186.224H127.199V186.418H126.616V186.613H126.228V186.807H125.645V187.001H125.062V187.195H124.48V187.389H123.897V187.584H123.12V187.778H122.538V187.972H121.761V188.166H121.178V188.36H120.402V188.555H119.819V188.749H119.042V188.943H118.265V189.137H117.294V189.331H116.129V189.526H115.158V189.72H113.993V189.914H112.439V190.108H110.303V190.302" fill="url(#paint15_linear_1_1309)"/>
</g>
</g>
<mask id="mask25_1_1309" style="mask-type:luminance" maskUnits="userSpaceOnUse" x="91" y="0" width="158" height="191">
<path d="M235.889 54.3974C235.889 54.3974 253.561 37.135 246.985 18.2277C240.409 -0.67771 190.863 -4.78899 167.66 5.48613C133.171 20.7619 143.646 78.2548 92.4444 167.426C85.0458 204.005 130.399 188.788 148.342 174.825C190.275 142.191 202.01 110.374 204.888 93.9132C207.764 77.4528 180.402 72.0502 179.578 69.1838C178.757 66.3174 193.965 46.1769 201.364 37.9564C201.364 37.9564 217.803 53.1642 230.956 36.7252C230.956 36.7252 240.819 39.6013 235.889 54.3974Z" fill="white"/>
</mask>
<g mask="url(#mask25_1_1309)">
<path d="M137.351 55.2694C148.734 29.3223 150.68 7.58554 185.719 2.39457C220.758 -2.79639 244.018 10.9957 248.286 24.0518C252.553 37.1098 262.935 16.0216 262.935 16.0216C262.935 16.0216 231.14 -27.454 230.167 -27.7783C229.192 -28.1026 124.604 -24.5351 121.583 -23.5602C118.561 -22.5873 109.152 3.36754 109.801 5.96205C110.45 8.5585 137.351 55.2694 137.351 55.2694Z" fill="#FCD9C3"/>
</g>
<path d="M182.748 8.40306C194.227 7.99718 196.015 33.5714 188.49 39.1216C180.967 44.6699 164.382 9.04974 182.748 8.40306Z" fill="white"/>
<mask id="mask26_1_1309" style="mask-type:luminance" maskUnits="userSpaceOnUse" x="174" y="8" width="20" height="32">
<path d="M182.748 8.40306C194.227 7.99718 196.015 33.5714 188.49 39.1216C180.967 44.6699 164.382 9.04974 182.748 8.40306Z" fill="white"/>
</mask>
<g mask="url(#mask26_1_1309)">
<path d="M172.372 20.2474C172.372 27.1648 175.413 32.7733 179.161 32.7733C182.911 32.7733 185.952 27.1648 185.952 20.2474C185.952 13.33 182.911 7.72341 179.161 7.72341C175.413 7.72341 172.372 13.33 172.372 20.2474Z" fill="#152037"/>
<path d="M180.481 21.5874C180.192 22.6322 182.188 24.0945 184.94 24.8577C187.692 25.6189 190.156 25.3918 190.446 24.347C190.735 23.3041 188.739 21.8399 185.987 21.0767C183.235 20.3154 180.769 20.5445 180.481 21.5874Z" fill="white"/>
</g>
<mask id="mask27_1_1309" style="mask-type:luminance" maskUnits="userSpaceOnUse" x="58" y="62" width="113" height="151">
<path d="M133.762 67.4321C149.482 55.4034 167.621 68.3584 170.049 85.9529C172.476 103.549 147.549 156.826 139.24 164.157C130.93 171.49 135.329 152.917 135.329 152.917C135.329 152.917 107.595 193.485 91.6465 200.327C75.6986 207.171 84.4966 191.386 84.4966 191.386C84.4966 191.386 62.9897 215.387 58.5915 212.744C54.1923 210.103 102.119 164.806 133.762 67.4321Z" fill="white"/>
</mask>
<g mask="url(#mask27_1_1309)">
<path d="M133.762 67.4321C149.482 55.4034 167.621 68.3584 170.049 85.9529C172.476 103.549 147.549 156.826 139.24 164.157C130.93 171.49 135.329 152.917 135.329 152.917C135.329 152.917 107.595 193.485 91.6465 200.327C75.6986 207.171 84.4966 191.386 84.4966 191.386C84.4966 191.386 62.9897 215.387 58.5915 212.744C54.1923 210.103 102.119 164.806 133.762 67.4321Z" fill="url(#paint16_linear_1_1309)"/>
</g>
<mask id="mask28_1_1309" style="mask-type:luminance" maskUnits="userSpaceOnUse" x="58" y="62" width="113" height="151">
<path d="M133.762 67.4321C149.482 55.4033 167.621 68.3565 170.049 85.9529C172.476 103.549 147.549 156.826 139.24 164.157C130.93 171.49 135.329 152.915 135.329 152.915C135.329 152.915 107.595 193.485 91.6465 200.327C75.6986 207.171 84.4966 191.386 84.4966 191.386C84.4966 191.386 62.9897 215.385 58.5915 212.744C54.1923 210.103 102.119 164.806 133.762 67.4321Z" fill="white"/>
</mask>
<g mask="url(#mask28_1_1309)">
<mask id="mask29_1_1309" style="mask-type:luminance" maskUnits="userSpaceOnUse" x="100" y="55" width="87" height="96">
<path d="M161.09 125.622C156.272 138.018 150.137 148.814 143.646 147.237C137.156 145.66 142.138 128.867 142.138 128.867C142.138 128.867 133.963 149.225 124.072 146.72C114.183 144.217 123.454 126.601 123.454 126.601C123.454 126.601 112.806 151.262 102.986 150.676C93.1659 150.089 119.437 87.3609 119.437 87.3609L141.999 55.1393L174.263 62.313L186.505 105.447L163.776 124.597" fill="white"/>
</mask>
<g mask="url(#mask29_1_1309)">
<path d="M103.118 150.88V150.686H102.147V150.491H101.953V150.297H101.758V150.103H101.564V149.909H101.37V149.52H101.176V149.132H100.982V148.355H100.787V144.471H100.982V144.083H101.176V143.694H101.37V143.306H101.564V142.918H101.758V142.723H101.953V142.335H102.147V141.947H102.341V141.558H102.535V141.17H102.729V140.781H102.924V140.393H103.118V140.005H103.312V139.616H103.506V139.228H103.7V138.839H103.895V138.645H104.089V138.257H104.283V137.868H104.477V137.48H104.671V137.092H104.866V136.703H105.06V136.315H105.254V135.926H105.448V135.538H105.642V135.15H105.837V134.761H106.031V134.373H106.225V133.984H106.419V133.596H106.613V133.208H106.808V132.819H107.002V132.431H107.196V132.042H107.39V131.654H107.584V131.266H107.779V130.877H107.973V130.489H108.167V130.1H108.361V129.712H108.555V129.324H108.75V128.935H108.944V128.547H109.138V128.158H109.332V127.77H109.526V127.382H109.721V126.799H109.915V126.411H110.109V126.022H110.303V125.634H110.497V125.245H110.692V124.857H110.886V124.469H111.08V124.08H111.274V123.692H111.468V123.303H111.663V122.915H111.857V122.332H112.051V121.944H112.245V121.556H112.439V121.167H112.634V120.779H112.828V120.39H113.022V119.808H113.216V119.419H113.41V119.031H113.605V118.643H113.799V118.254H113.993V117.866H114.187V117.283H114.381V116.895H114.576V116.506H114.77V116.118H114.964V115.73H115.158V115.147H115.352V114.759H115.547V114.37H115.741V113.788H115.935V113.399H116.129V113.011H116.323V112.622H116.518V112.04H116.712V111.651H116.906V111.263H117.1V110.875H117.294V110.292H117.489V109.904H117.683V109.515H117.877V108.933H118.071V108.544H118.265V108.156H118.46V107.573H118.654V107.185H118.848V106.796H119.042V106.214H119.236V105.825H119.431V105.243H119.625V104.854H119.819V104.466H120.013V103.883H120.207V103.495H120.402V103.107H120.596V102.524H120.79V102.136H120.984V101.553H121.178V101.165H121.373V100.582H121.567V100.194H121.761V99.6111H121.955V99.2227H122.149V98.6401H122.344V98.2517H122.538V97.6691H122.732V97.2807H122.926V96.6981H123.12V96.3097H123.315V95.7271H123.509V95.3387H123.703V94.7561H123.897V94.3677H124.091V93.7851H124.286V93.3967H124.48V92.8141H124.674V92.4257H124.868V91.8431H125.062V91.2605H125.257V90.8721H125.451V90.2895H125.645V89.7069H125.839V89.3185H126.033V88.7359H126.228V88.1533H126.422V87.7649H126.616V87.1823H126.81V86.7939H127.004V86.2113H127.199V85.6287H127.393V85.2403H127.587V84.6577H127.781V84.0751H127.975V83.4925H128.17V82.9099H128.364V82.5215H128.558V81.9389H128.752V81.3563H128.946V80.7737H129.141V80.1911H129.335V79.8027H129.529V79.2201H129.723V78.6375H129.917V78.0549H130.112V77.4723H130.306V77.0839H130.5V76.5013H130.694V75.9187H130.888V75.3361H131.083V74.7535H131.277V74.1709H131.471V73.5883H131.665V73.0057H131.859V72.4231H132.054V71.8405H132.248V71.2579H132.442V70.6753H132.636V70.0927H132.83V69.5101H133.025V68.9275H133.219V68.3449H133.413V67.7623H133.607V67.3739H133.801V67.1797H133.996V66.9855H134.19V66.7913H134.578V66.5971H134.772V66.4029H135.161V66.2087H135.549V66.0145H135.743V65.8203H136.132V65.6261H136.326V65.4319H136.714V65.2377H137.103V65.0435H137.491V64.8493H137.88V64.6551H138.268V64.4609H138.851V64.2667H139.239V64.0725H139.627V63.8783H140.21V63.6841H140.987V63.4899H141.569V63.2957H142.152V63.1015H143.123V62.9073H144.677V62.7131H149.143V62.9073H150.114V63.1015H151.279V63.2957H152.056V63.4899H152.639V63.6841H153.221V63.8783H153.804V64.0725H154.387V64.2667H154.775V64.4609H155.163V64.6551H155.552V64.8493H155.94V65.0435H156.329V65.2377H156.717V65.4319H157.105V65.6261H157.3V65.8203H157.688V66.0145H157.882V66.2087H158.271V66.4029H158.465V66.5971H158.853V66.7913H159.047V66.9855H159.436V67.1797H159.63V67.3739H159.824V67.5681H160.018V67.7623H160.213V67.9565H160.601V68.1507H160.795V68.3449H160.989V68.5391H161.184V68.7333H161.378V68.9275H161.572V69.1217H161.766V69.3159H161.96V69.5101H162.155V69.7043H162.349V69.8985H162.543V70.0927H162.737V70.2869H162.931V70.4811H163.126V70.6753H163.32V70.8695H163.514V71.0637H163.708V71.2579H163.902V71.6463H164.097V71.8405H164.291V72.0347H164.485V72.4231H164.679V72.6173H164.873V72.8115H165.068V73.1999H165.262V73.3941H165.456V73.7825H165.65V73.9767H165.844V74.3651H166.039V74.7535H166.233V74.9477H166.427V75.3361H166.621V75.7245H166.815V75.9187H167.01V76.3071H167.204V76.6955H167.398V77.0839H167.592V77.6665H167.786V78.0549H167.981V78.4433H168.175V78.8317H168.369V79.4143H168.563V79.9969H168.757V80.5795H168.952V81.1621H169.146V81.7447H169.34V82.3273H169.534V83.1041H169.728V84.0751H169.923V85.0461H170.117V86.4055H170.311V90.8721H170.117V92.8141H169.923V94.3677H169.728V95.5329H169.534V96.6981H169.34V97.6691H169.146V98.4459H168.952V99.4169H168.757V100.194H168.563V100.97H168.369V101.941H168.175V102.524H167.981V103.301H167.786V104.078H167.592V104.854H167.398V105.437H167.204V106.02H167.01V106.796H166.815V107.379H166.621V107.962H166.427V108.738H166.233V109.321H166.039V109.904H165.844V110.486H165.65V111.069H165.456V111.651H165.262V112.234H165.068V112.817H164.873V113.399H164.679V113.982H164.485V114.564H164.291V115.147H164.097V115.535H163.902V116.118H163.708V116.701H163.514V117.283H163.32V117.672H163.126V118.254H162.931V118.837H162.737V119.419H162.543V119.808H162.349V120.39H162.155V120.779H161.96V121.361H161.766V121.944H161.572V122.332H161.378V122.915H161.184V123.303H160.989V123.886H160.795V124.274H160.601V124.857H160.407V125.245H160.213V125.828H160.018V126.216H159.824V126.605H159.63V127.187H159.436V127.576H159.242V128.158H159.047V128.547H158.853V128.935H158.659V129.518H158.465V129.906H158.271V130.295H158.076V130.877H157.882V131.266H157.688V131.654H157.494V132.237H157.3V132.625H157.105V133.013H156.911V133.402H156.717V133.984H156.523V134.373H156.329V134.761H156.134V135.15H155.94V135.732H155.746V136.121H155.552V136.509H155.358V136.897H155.163V137.286H154.969V137.674H154.775V138.257H154.581V138.645H154.387V139.034H154.192V139.422H153.998V139.81H153.804V140.199H153.61V140.587H153.416V140.976H153.221V141.364H153.027V141.752H152.833V142.141H152.639V142.335H152.445V142.723H152.25V142.918H152.056V143.112H151.862V143.306H151.668V143.5H151.474V143.889H151.279V144.083H151.085V144.277H150.891V144.471H150.697V144.665H150.503V144.86H150.308V145.054H149.92V145.248H149.726V145.442H149.532V145.636H149.337V145.831H149.143V146.025H148.755V146.219H148.561V146.413H148.172V146.607H147.784V146.802H147.201V146.996H146.813V147.19H146.424V147.384H143.317V147.19H142.929V146.996H142.54V146.802H142.346V146.607H142.152V146.413H141.958V146.219H141.569V145.831H141.375V145.442H141.181V145.248H140.987V144.665H140.793V144.083H140.598V143.306H140.404V142.141H140.21V138.063H140.404V136.121H140.598V134.955H140.793V133.79H140.987V132.625H141.181V131.848H141.375V131.071H141.181V131.46H140.987V131.848H140.793V132.237H140.598V132.625H140.404V133.013H140.21V133.402H140.016V133.79H139.822V134.179H139.627V134.567H139.433V134.955H139.239V135.15H139.045V135.538H138.851V135.926H138.656V136.315H138.462V136.509H138.268V136.897H138.074V137.286H137.88V137.48H137.685V137.868H137.491V138.063H137.297V138.451H137.103V138.645H136.909V139.034H136.714V139.228H136.52V139.422H136.326V139.81H136.132V140.005H135.938V140.393H135.743V140.587H135.549V140.781H135.355V140.976H135.161V141.364H134.967V141.558H134.772V141.752H134.578V141.947H134.384V142.141H134.19V142.335H133.996V142.529H133.801V142.723H133.607V142.918H133.413V143.112H133.219V143.306H133.025V143.694H132.83V143.889H132.442V144.083H132.248V144.277H132.054V144.471H131.859V144.665H131.471V144.86H131.277V145.054H131.083V145.248H130.694V145.442H130.5V145.636H130.112V145.831H129.723V146.025H129.529V146.219H128.946V146.413H128.364V146.607H127.975V146.802H126.81V146.996H124.286V146.802H123.509V146.607H123.12V146.413H122.732V146.219H122.344V146.025H121.955V145.831H121.761V145.636H121.567V145.442H121.178V145.248H120.984V144.86H120.79V144.665H120.596V144.471H120.402V144.083H120.207V143.694H120.013V143.112H119.819V142.723H119.625V141.558H119.431V138.257H119.625V136.897H119.819V135.926H120.013V134.955H120.207V134.373H120.402V133.596H120.596V133.013H120.79V132.625H120.596V133.013H120.402V133.208H120.207V133.596H120.013V133.984H119.819V134.373H119.625V134.761H119.431V134.955H119.236V135.344H119.042V135.732H118.848V136.121H118.654V136.315H118.46V136.703H118.265V137.092H118.071V137.286H117.877V137.674H117.683V138.063H117.489V138.257H117.294V138.645H117.1V139.034H116.906V139.228H116.712V139.616H116.518V139.81H116.323V140.199H116.129V140.393H115.935V140.781H115.741V140.976H115.547V141.364H115.352V141.558H115.158V141.752H114.964V142.141H114.77V142.335H114.576V142.529H114.381V142.918H114.187V143.112H113.993V143.306H113.799V143.694H113.605V143.889H113.41V144.083H113.216V144.277H113.022V144.471H112.828V144.86H112.634V145.054H112.439V145.248H112.245V145.442H112.051V145.636H111.857V145.831H111.663V146.025H111.468V146.219H111.274V146.413H111.08V146.607H110.886V146.802H110.692V146.996H110.497V147.19H110.303V147.384H110.109V147.578H109.915V147.773H109.721V147.967H109.526V148.161H109.138V148.355H108.944V148.549H108.75V148.744H108.555V148.938H108.167V149.132H107.973V149.326H107.584V149.52H107.196V149.715H107.002V149.909H106.613V150.103H106.031V150.297H105.448V150.491H104.866V150.686H103.7V150.88H103.118ZM120.79 132.431H120.984V132.237H120.79V132.431ZM141.375 130.877H141.569V130.683H141.375V130.877Z" fill="url(#paint17_linear_1_1309)"/>
</g>
</g>
<mask id="mask30_1_1309" style="mask-type:luminance" maskUnits="userSpaceOnUse" x="58" y="62" width="113" height="151">
<path d="M133.762 67.4321C149.482 55.4033 167.621 68.3565 170.049 85.9529C172.476 103.549 147.549 156.826 139.24 164.157C130.93 171.49 135.329 152.915 135.329 152.915C135.329 152.915 107.595 193.485 91.6465 200.327C75.6986 207.171 84.4966 191.386 84.4966 191.386C84.4966 191.386 62.9897 215.385 58.5915 212.744C54.1923 210.103 102.119 164.806 133.762 67.4321Z" fill="white"/>
</mask>
<g mask="url(#mask30_1_1309)">
<mask id="mask31_1_1309" style="mask-type:luminance" maskUnits="userSpaceOnUse" x="107" y="27" width="87" height="97">
<path d="M170.297 97.0438C165.479 109.441 159.337 120.746 152.847 119.169C146.356 117.592 151.301 102.448 151.301 102.448C151.301 102.448 140.484 121.672 130.593 119.169C120.704 116.664 129.976 99.0479 129.976 99.0479C129.976 99.0479 119.327 123.709 109.507 123.123C99.6867 122.536 125.958 59.8079 125.958 59.8079L148.52 27.5881L180.782 34.7618L193.027 77.8937L170.297 97.0438Z" fill="white"/>
</mask>
<g mask="url(#mask31_1_1309)">
<path d="M111.857 122.915V122.333H112.051V121.944H112.245V121.556H112.439V121.167H112.634V120.779H112.828V120.391H113.022V119.808H113.216V119.42H113.41V119.031H113.605V118.643H113.799V118.254H113.993V117.866H114.187V117.283H114.381V116.895H114.576V116.507H114.77V116.118H114.964V115.73H115.158V115.147H115.352V114.759H115.547V114.37H115.741V113.788H115.935V113.399H116.129V113.011H116.323V112.623H116.518V112.04H116.712V111.652H116.906V111.263H117.1V110.875H117.294V110.292H117.489V109.904H117.683V109.515H117.877V108.933H118.071V108.544H118.265V108.156H118.46V107.573H118.654V107.185H118.848V106.797H119.042V106.214H119.236V105.826H119.431V105.243H119.625V104.855H119.819V104.466H120.013V103.884H120.207V103.495H120.402V103.107H120.596V102.524H120.79V102.136H120.984V101.553H121.178V101.165H121.373V100.582H121.567V100.194H121.761V99.6111H121.955V99.2227H122.149V98.6401H122.344V98.2517H122.538V97.6691H122.732V97.2807H122.926V96.6981H123.12V96.3097H123.315V95.7271H123.509V95.3387H123.703V94.7561H123.897V94.3677H124.091V93.7851H124.286V93.3967H124.48V92.8141H124.674V92.4257H124.868V91.8431H125.062V91.2605H125.257V90.8721H125.451V90.2895H125.645V89.7069H125.839V89.3185H126.033V88.7359H126.228V88.1533H126.422V87.7649H126.616V87.1823H126.81V86.7939H127.004V86.2113H127.199V85.6287H127.393V85.2403H127.587V84.6577H127.781V84.0751H127.975V83.4925H128.17V82.9099H128.364V82.5215H128.558V81.9389H128.752V81.3563H128.946V80.7737H129.141V80.1911H129.335V79.8027H129.529V79.2201H129.723V78.6375H129.917V78.0549H130.112V77.4723H130.306V77.0839H130.5V76.5013H130.694V75.9187H130.888V75.3361H131.083V74.7535H131.277V74.1709H131.471V73.5883H131.665V73.0057H131.859V72.4231H132.054V71.8405H132.248V71.2579H132.442V70.6753H132.636V70.0927H132.83V69.5101H133.025V68.9275H133.219V68.3449H133.413V67.7623H133.607V67.3739H133.801V67.1797H133.996V66.9855H134.19V66.7913H134.578V66.5971H134.772V66.4029H135.161V66.2087H135.549V66.0145H135.743V65.8203H136.132V65.6261H136.326V65.4319H136.714V65.2377H137.103V65.0435H137.491V64.8493H137.88V64.6551H138.268V64.4609H138.851V64.2667H139.239V64.0725H139.627V63.8783H140.21V63.6841H140.987V63.4899H141.569V63.2957H142.152V63.1015H143.123V62.9073H144.677V62.7131H149.143V62.9073H150.114V63.1015H151.279V63.2957H152.056V63.4899H152.639V63.6841H153.221V63.8783H153.804V64.0725H154.387V64.2667H154.775V64.4609H155.163V64.6551H155.552V64.8493H155.94V65.0435H156.329V65.2377H156.717V65.4319H157.105V65.6261H157.3V65.8203H157.688V66.0145H157.882V66.2087H158.271V66.4029H158.465V66.5971H158.853V66.7913H159.047V66.9855H159.436V67.1797H159.63V67.3739H159.824V67.5681H160.018V67.7623H160.213V67.9565H160.601V68.1507H160.795V68.3449H160.989V68.5391H161.184V68.7333H161.378V68.9275H161.572V69.1217H161.766V69.3159H161.96V69.5101H162.155V69.7043H162.349V69.8985H162.543V70.0927H162.737V70.2869H162.931V70.4811H163.126V70.6753H163.32V70.8695H163.514V71.0637H163.708V71.2579H163.902V71.6463H164.097V71.8405H164.291V72.0347H164.485V72.4231H164.679V72.6173H164.873V72.8115H165.068V73.1999H165.262V73.3941H165.456V73.7825H165.65V73.9767H165.844V74.3651H166.039V74.7535H166.233V74.9477H166.427V75.3361H166.621V75.7245H166.815V75.9187H167.01V76.3071H167.204V76.6955H167.398V77.0839H167.592V77.6665H167.786V78.0549H167.981V78.4433H168.175V78.8317H168.369V79.4143H168.563V79.9969H168.757V80.5795H168.952V81.1621H169.146V81.7447H169.34V82.3273H169.534V83.1041H169.728V84.0751H169.923V85.0461H170.117V86.4055H170.311V90.8721H170.117V92.8141H169.923V94.3677H169.728V95.5329H169.534V96.6981H169.34V97.6691H169.146V98.4459H168.952V99.4169H168.757V100.194H168.563V100.971H168.369V101.942H168.175V102.524H167.981V103.107H167.786V103.495H167.592V103.884H167.398V104.466H167.204V104.855H167.01V105.243H166.815V105.631H166.621V106.02H166.427V106.408H166.233V106.797H166.039V107.185H165.844V107.573H165.65V107.962H165.456V108.35H165.262V108.739H165.068V109.127H164.873V109.321H164.679V109.71H164.485V110.098H164.291V110.486H164.097V110.681H163.902V111.069H163.708V111.457H163.514V111.652H163.32V112.04H163.126V112.234H162.931V112.623H162.737V112.817H162.543V113.205H162.349V113.594H162.155V113.788H161.96V113.982H161.766V114.176H161.572V114.37H161.378V114.759H161.184V114.953H160.989V115.147H160.795V115.341H160.601V115.73H160.407V115.924H160.213V116.118H160.018V116.312H159.824V116.507H159.63V116.701H159.436V116.895H159.242V117.089H158.853V117.283H158.659V117.478H158.465V117.672H158.271V117.866H158.076V118.06H157.882V118.254H157.494V118.449H156.911V118.643H156.523V118.837H156.134V119.031H155.746V119.225H154.775V119.42H153.027V119.225H152.25V119.031H151.862V118.837H151.668V118.643H151.279V118.449H151.085V118.254H150.891V118.06H150.697V117.672H150.503V117.478H150.308V117.089H150.114V116.701H149.92V116.118H149.726V115.341H149.532V113.594H149.337V111.457H149.532V109.515H149.726V108.156H149.92V106.991H150.114V106.214H150.308V105.243H150.503V104.466H150.697V103.884H150.503V104.272H150.308V104.466H150.114V104.855H149.92V105.049H149.726V105.437H149.532V105.631H149.337V106.02H149.143V106.214H148.949V106.602H148.755V106.797H148.561V107.185H148.366V107.379H148.172V107.573H147.978V107.962H147.784V108.156H147.59V108.35H147.395V108.739H147.201V108.933H147.007V109.127H146.813V109.515H146.619V109.71H146.424V109.904H146.23V110.292H146.036V110.486H145.842V110.681H145.648V110.875H145.453V111.069H145.259V111.263H145.065V111.652H144.871V111.846H144.677V112.04H144.482V112.234H144.288V112.428H144.094V112.623H143.9V112.817H143.706V113.011H143.511V113.205H143.317V113.594H143.123V113.788H142.735V113.982H142.54V114.176H142.346V114.37H142.152V114.565H141.958V114.759H141.764V114.953H141.569V115.147H141.375V115.341H141.181V115.536H140.987V115.73H140.598V115.924H140.404V116.118H140.21V116.312H140.016V116.507H139.627V116.701H139.433V116.895H139.239V117.089H138.851V117.283H138.656V117.478H138.268V117.672H138.074V117.866H137.685V118.06H137.297V118.254H136.909V118.449H136.52V118.643H135.938V118.837H135.355V119.031H134.772V119.225H133.996V119.42H130.694V119.225H129.917V119.031H129.529V118.837H129.141V118.643H128.752V118.449H128.558V118.254H128.17V118.06H127.975V117.866H127.781V117.672H127.587V117.478H127.393V117.283H127.199V116.895H127.004V116.701H126.81V116.312H126.616V115.924H126.422V115.341H126.228V114.37H126.033V109.904H126.228V108.933H126.422V107.962H126.616V107.185H126.81V106.408H127.004V105.826H127.199V105.243H127.393V104.855H127.199V105.243H127.004V105.631H126.81V106.02H126.616V106.214H126.422V106.602H126.228V106.991H126.033V107.379H125.839V107.768H125.645V107.962H125.451V108.35H125.257V108.739H125.062V109.127H124.868V109.321H124.674V109.71H124.48V109.904H124.286V110.292H124.091V110.681H123.897V110.875H123.703V111.263H123.509V111.652H123.315V111.846H123.12V112.234H122.926V112.428H122.732V112.817H122.538V113.011H122.344V113.399H122.149V113.594H121.955V113.788H121.761V114.176H121.567V114.37H121.373V114.759H121.178V114.953H120.984V115.147H120.79V115.536H120.596V115.73H120.402V115.924H120.207V116.118H120.013V116.507H119.819V116.701H119.625V116.895H119.431V117.089H119.236V117.283H119.042V117.672H118.848V117.866H118.654V118.06H118.46V118.254H118.265V118.449H118.071V118.643H117.877V118.837H117.683V119.031H117.489V119.225H117.294V119.42H117.1V119.614H116.906V119.808H116.712V120.002H116.518V120.196H116.323V120.391H115.935V120.585H115.741V120.779H115.547V120.973H115.352V121.167H115.158V121.362H114.77V121.556H114.381V121.75H114.187V121.944H113.799V122.138H113.41V122.333H113.022V122.527H112.634V122.721H112.051V122.915H111.857ZM127.393 104.66H127.587V104.466H127.393V104.66ZM150.697 103.689H150.891V103.495H150.697V103.689Z" fill="url(#paint18_linear_1_1309)"/>
</g>
</g>
<defs>
<linearGradient id="paint0_linear_1_1309" x1="196.493" y1="73.4407" x2="176.046" y2="130.256" gradientUnits="userSpaceOnUse">
<stop stop-color="#F35F56"/>
<stop offset="0.0315137" stop-color="#F35F56"/>
<stop offset="0.72573" stop-color="#FDD846"/>
<stop offset="1" stop-color="#FDD846"/>
</linearGradient>
<linearGradient id="paint1_linear_1_1309" x1="161.551" y1="136.311" x2="114.29" y2="197.233" gradientUnits="userSpaceOnUse">
<stop stop-color="#251B41"/>
<stop offset="0.112125" stop-color="#251B41"/>
<stop offset="0.908579" stop-color="#39516C"/>
<stop offset="1" stop-color="#39516C"/>
</linearGradient>
<linearGradient id="paint2_linear_1_1309" x1="182.155" y1="117.742" x2="156.431" y2="171.859" gradientUnits="userSpaceOnUse">
<stop stop-color="#404A1B"/>
<stop offset="0.103329" stop-color="#404A1B"/>
<stop offset="0.570577" stop-color="#6E7734"/>
<stop offset="1" stop-color="#6E7734"/>
</linearGradient>
<linearGradient id="paint3_linear_1_1309" x1="196.493" y1="73.4407" x2="176.046" y2="130.256" gradientUnits="userSpaceOnUse">
<stop stop-color="#E03C31"/>
<stop offset="0.0315137" stop-color="#E03C31"/>
<stop offset="0.72573" stop-color="#D1762C"/>
<stop offset="1" stop-color="#D1762C"/>
</linearGradient>
<linearGradient id="paint4_linear_1_1309" x1="100.347" y1="227.049" x2="164.477" y2="227.049" gradientUnits="userSpaceOnUse">
<stop stop-color="#F35F56"/>
<stop offset="0.0315137" stop-color="#F35F56"/>
<stop offset="0.72573" stop-color="#FDD846"/>
<stop offset="1" stop-color="#FDD846"/>
</linearGradient>
<linearGradient id="paint5_linear_1_1309" x1="122.58" y1="296.852" x2="108.537" y2="166.662" gradientUnits="userSpaceOnUse">
<stop stop-color="#F35F56"/>
<stop offset="0.112125" stop-color="#F35F56"/>
<stop offset="0.901117" stop-color="#E02F5F"/>
<stop offset="1" stop-color="#E02F5F"/>
</linearGradient>
<linearGradient id="paint6_linear_1_1309" x1="100.462" y1="305.972" x2="87.7009" y2="187.664" gradientUnits="userSpaceOnUse">
<stop stop-color="#F35F56"/>
<stop offset="0.112125" stop-color="#F35F56"/>
<stop offset="0.901117" stop-color="#E02F5F"/>
<stop offset="1" stop-color="#E02F5F"/>
</linearGradient>
<linearGradient id="paint7_linear_1_1309" x1="145.148" y1="183.686" x2="155.479" y2="181.955" gradientUnits="userSpaceOnUse">
<stop stop-color="#F35F56"/>
<stop offset="0.112125" stop-color="#F35F56"/>
<stop offset="0.828711" stop-color="#F9B264"/>
<stop offset="1" stop-color="#F9B264"/>
</linearGradient>
<linearGradient id="paint8_linear_1_1309" x1="141.745" y1="184.434" x2="148.78" y2="183.255" gradientUnits="userSpaceOnUse">
<stop stop-color="#F35F56"/>
<stop offset="0.112125" stop-color="#F35F56"/>
<stop offset="0.828711" stop-color="#F9B264"/>
<stop offset="1" stop-color="#F9B264"/>
</linearGradient>
<linearGradient id="paint9_linear_1_1309" x1="120.964" y1="190.557" x2="131.397" y2="190.557" gradientUnits="userSpaceOnUse">
<stop stop-color="#F35F56"/>
<stop offset="0.112125" stop-color="#F35F56"/>
<stop offset="0.828711" stop-color="#F9B264"/>
<stop offset="1" stop-color="#F9B264"/>
</linearGradient>
<linearGradient id="paint10_linear_1_1309" x1="118.496" y1="192.227" x2="124.669" y2="192.227" gradientUnits="userSpaceOnUse">
<stop stop-color="#F35F56"/>
<stop offset="0.112125" stop-color="#F35F56"/>
<stop offset="0.828711" stop-color="#F9B264"/>
<stop offset="1" stop-color="#F9B264"/>
</linearGradient>
<linearGradient id="paint11_linear_1_1309" x1="173.447" y1="2.49742" x2="166.406" y2="206.002" gradientUnits="userSpaceOnUse">
<stop stop-color="#F35F56"/>
<stop offset="0.112125" stop-color="#F35F56"/>
<stop offset="0.901117" stop-color="#E02F5F"/>
<stop offset="1" stop-color="#E02F5F"/>
</linearGradient>
<linearGradient id="paint12_linear_1_1309" x1="195.4" y1="-26.4888" x2="184.95" y2="103.715" gradientUnits="userSpaceOnUse">
<stop stop-color="#FBCECD"/>
<stop offset="0.261096" stop-color="#FBCECD"/>
<stop offset="0.828711" stop-color="#F9B264"/>
<stop offset="1" stop-color="#F9B264"/>
</linearGradient>
<linearGradient id="paint13_linear_1_1309" x1="252.627" y1="74.4738" x2="252.627" y2="-4.10632" gradientUnits="userSpaceOnUse">
<stop stop-color="#F35F56"/>
<stop offset="0.112125" stop-color="#F35F56"/>
<stop offset="0.828711" stop-color="#F9B264"/>
<stop offset="1" stop-color="#F9B264"/>
</linearGradient>
<linearGradient id="paint14_linear_1_1309" x1="223.982" y1="6.60092" x2="211.278" y2="81.6462" gradientUnits="userSpaceOnUse">
<stop stop-color="#F35F56"/>
<stop offset="0.354845" stop-color="#F35F56"/>
<stop offset="0.828711" stop-color="#F9B264"/>
<stop offset="1" stop-color="#F9B264"/>
</linearGradient>
<linearGradient id="paint15_linear_1_1309" x1="173.447" y1="2.49745" x2="166.406" y2="206.002" gradientUnits="userSpaceOnUse">
<stop stop-color="#E03C31"/>
<stop offset="0.112125" stop-color="#E03C31"/>
<stop offset="0.901117" stop-color="#AD1D36"/>
<stop offset="1" stop-color="#AD1D36"/>
</linearGradient>
<linearGradient id="paint16_linear_1_1309" x1="123.43" y1="132.823" x2="71.4093" y2="199.881" gradientUnits="userSpaceOnUse">
<stop stop-color="#353690"/>
<stop offset="0.112125" stop-color="#353690"/>
<stop offset="0.908579" stop-color="#4797CD"/>
<stop offset="1" stop-color="#4797CD"/>
</linearGradient>
<linearGradient id="paint17_linear_1_1309" x1="145.468" y1="112.187" x2="117.046" y2="171.98" gradientUnits="userSpaceOnUse">
<stop stop-color="#4B943B"/>
<stop offset="0.103329" stop-color="#4B943B"/>
<stop offset="0.570577" stop-color="#7ECF66"/>
<stop offset="1" stop-color="#7ECF66"/>
</linearGradient>
<linearGradient id="paint18_linear_1_1309" x1="161.294" y1="62.917" x2="138.64" y2="125.868" gradientUnits="userSpaceOnUse">
<stop stop-color="#F35F56"/>
<stop offset="0.0315137" stop-color="#F35F56"/>
<stop offset="0.72573" stop-color="#FDD846"/>
<stop offset="1" stop-color="#FDD846"/>
</linearGradient>
</defs>
</svg>
